<svg width="428" height="305" viewBox="0 0 428 305" fill="none" xmlns="http://www.w3.org/2000/svg">
<path d="M339.371 180.143C341.114 212.383 278.327 277.938 200.938 253.674C164.945 242.388 167.994 223.656 140.625 198.968C124.312 184.254 100.872 173.127 94.3532 151.739C88.7214 133.278 92.1748 113.435 101.938 100.528C123.897 71.5017 168.226 51.6259 211.905 97.3591C255.584 143.092 334.867 96.9946 339.371 180.143Z" fill="url(#paint0_linear_785_1535)"/>
<path d="M312.126 97.5594C306.373 107.868 293.772 109.284 273.584 107.325C258.402 105.849 244.556 104.707 229.372 96.3963C218.745 90.5835 210.333 82.7191 204.192 75.0809C197.539 66.8062 188.252 57.3624 192.804 47.9806C199.061 35.0923 235.242 24.2374 270.375 41.9884C308.969 61.4936 317.755 87.4842 312.126 97.5594Z" fill="url(#paint1_linear_785_1535)"/>
<path d="M140.378 262.739C126.265 242.919 111.812 221.854 92.8911 211.479C73.3738 200.772 69.7746 207.37 68.4236 217.862C67.0727 228.353 73.0938 253.21 99.729 267.353C126.371 281.5 153.582 281.288 140.378 262.739Z" fill="url(#paint2_linear_785_1535)"/>
<path d="M344.594 128.857C334.607 131.232 324.044 122.729 324.044 122.729C324.044 122.729 329.681 110.38 339.671 108.013C349.658 105.637 360.218 114.133 360.218 114.133C360.218 114.133 354.581 126.482 344.594 128.857Z" fill="url(#paint3_linear_785_1535)"/>
<path d="M361.15 221.498C370.205 227.759 384.038 223.383 384.038 223.383C384.038 223.383 383.181 208.856 374.121 202.601C365.066 196.341 351.239 200.711 351.239 200.711C351.239 200.711 352.096 215.237 361.15 221.498Z" fill="url(#paint4_linear_785_1535)"/>
<path d="M53.8354 157.013C63.6513 167.042 82.0075 164.928 82.0075 164.928C82.0075 164.928 84.4365 146.552 74.611 136.528C64.7952 126.499 46.4481 128.607 46.4481 128.607C46.4481 128.607 44.0191 146.983 53.8354 157.013Z" fill="url(#paint5_linear_785_1535)"/>
<path d="M354.328 160.551C350.299 160.551 347.033 163.688 347.033 167.556C347.033 171.425 350.299 174.561 354.328 174.561C358.357 174.561 361.624 171.425 361.624 167.556C361.624 163.688 358.357 160.551 354.328 160.551Z" fill="url(#paint6_linear_785_1535)"/>
<path d="M108.655 217.739C103.225 217.739 98.8227 222.016 98.8227 227.291C98.8227 232.567 103.225 236.843 108.655 236.843C114.086 236.843 118.488 232.567 118.488 227.291C118.488 222.016 114.086 217.739 108.655 217.739Z" fill="url(#paint7_linear_785_1535)"/>
<path d="M102.923 105.093C98.9681 105.093 95.7623 101.874 95.7623 97.9044C95.7623 93.9344 98.9681 90.7161 102.923 90.7161C106.877 90.7161 110.083 93.9344 110.083 97.9044C110.083 101.874 106.877 105.093 102.923 105.093Z" fill="url(#paint8_linear_785_1535)"/>
<path d="M259.426 79.5419C255.748 79.5419 252.766 76.5482 252.766 72.8553C252.766 69.1624 255.748 66.1687 259.426 66.1687C263.105 66.1687 266.087 69.1624 266.087 72.8553C266.087 76.5482 263.105 79.5419 259.426 79.5419Z" fill="url(#paint9_linear_785_1535)"/>
<path d="M339.711 236.724C336.403 236.724 333.721 234.031 333.721 230.71C333.721 227.389 336.403 224.697 339.711 224.697C343.02 224.697 345.702 227.389 345.702 230.71C345.702 234.031 343.02 236.724 339.711 236.724Z" fill="#E1E4E5"/>
<path d="M89.0956 189.907C85.6158 189.907 82.7949 187.075 82.7949 183.582C82.7949 180.088 85.6158 177.256 89.0956 177.256C92.5753 177.256 95.3962 180.088 95.3962 183.582C95.3962 187.075 92.5753 189.907 89.0956 189.907Z" fill="#E1E4E5"/>
<path d="M158.229 261.447C156.514 261.447 155.124 260.051 155.124 258.33C155.124 256.609 156.514 255.213 158.229 255.213C159.943 255.213 161.333 256.609 161.333 258.33C161.333 260.051 159.943 261.447 158.229 261.447Z" fill="#E1E4E5"/>
<path d="M308.272 79.6253C305.655 79.6253 303.534 77.4955 303.534 74.8683C303.534 72.2411 305.655 70.1113 308.272 70.1113C310.889 70.1113 313.011 72.2411 313.011 74.8683C313.011 77.4955 310.889 79.6253 308.272 79.6253Z" fill="#E1E4E5"/>
<path d="M109.276 145.596C109.719 147.256 108.738 148.962 107.085 149.407C105.431 149.852 103.732 148.867 103.289 147.207C102.846 145.547 103.827 143.841 105.48 143.396C107.134 142.951 108.833 143.936 109.276 145.596Z" fill="#E1E4E5"/>
<path d="M160.874 74.4474C158.597 74.4474 156.751 72.5942 156.751 70.3081C156.751 68.022 158.597 66.1687 160.874 66.1687C163.152 66.1687 164.998 68.022 164.998 70.3081C164.998 72.5942 163.152 74.4474 160.874 74.4474Z" fill="#E1E4E5"/>
<path d="M304.28 159.632C302.528 159.632 301.108 158.492 301.108 157.085C301.108 155.678 302.528 154.538 304.28 154.538C306.031 154.538 307.451 155.678 307.451 157.085C307.451 158.492 306.031 159.632 304.28 159.632Z" fill="#E1E4E5"/>
<path d="M244.933 42.8143C245.855 46.2689 243.812 49.8197 240.371 50.7454C236.93 51.671 233.393 49.6209 232.471 46.1664C231.549 42.7118 233.591 39.161 237.032 38.2354C240.473 37.3097 244.011 39.3598 244.933 42.8143Z" fill="#E1E4E5"/>
<path d="M377.991 131.152H378.074C378.565 138.14 383.743 138.248 383.743 138.248C383.743 138.248 378.033 138.36 378.033 146.435C378.033 138.36 372.325 138.248 372.325 138.248C372.325 138.248 377.5 138.14 377.991 131.152ZM139.144 34.9341H139.287C140.133 47.1646 149.05 47.3527 149.05 47.3527C149.05 47.3527 139.218 47.5484 139.218 61.6805C139.218 47.5489 129.385 47.3527 129.385 47.3527C129.385 47.3527 138.298 47.1646 139.144 34.9341Z" fill="#E1E4E5"/>
<path fill-rule="evenodd" clip-rule="evenodd" d="M187.781 77.0068L193.698 63.5487C197.292 55.364 205.316 50.0906 214.172 50.0906C223.027 50.0906 231.051 55.364 234.645 63.5487L240.562 77.0068C242.661 81.7735 246.204 85.7543 250.687 88.3828C255.183 91.0084 260.396 92.1281 265.569 91.5797L280.047 90.0212C288.851 89.0792 297.378 93.4712 301.802 101.227C306.233 108.978 305.73 118.641 300.52 125.88L291.949 137.79C288.894 142.071 287.264 147.211 287.291 152.477C287.288 157.729 288.934 162.848 291.993 167.107L300.565 179.018C305.775 186.256 306.278 195.92 301.847 203.671C297.423 211.426 288.896 215.818 280.092 214.876L265.614 213.318C260.441 212.769 255.228 213.889 250.732 216.514C246.24 219.158 242.696 223.16 240.607 227.948L234.645 241.406C231.051 249.591 223.027 254.864 214.172 254.864C205.316 254.864 197.292 249.591 193.698 241.406L187.781 227.948C185.692 223.16 182.149 219.158 177.657 216.514C173.16 213.889 167.947 212.769 162.774 213.318L148.252 214.876C139.447 215.818 130.921 211.426 126.496 203.671C122.066 195.92 122.569 186.256 127.778 179.018L136.35 167.107C139.41 162.848 141.055 157.729 141.052 152.477C141.055 147.226 139.41 142.107 136.35 137.847L127.778 125.936C122.569 118.698 122.066 109.035 126.496 101.284C130.925 93.5327 139.448 89.1423 148.252 90.0781L162.729 91.6367C167.902 92.1851 173.115 91.0654 177.612 88.4397C182.12 85.804 185.681 81.8013 187.781 77.0068Z" fill="url(#paint10_linear_785_1535)"/>
<path fill-rule="evenodd" clip-rule="evenodd" d="M214.172 207.287C184.539 207.287 160.517 182.747 160.517 152.477C160.517 122.207 184.539 97.6682 214.172 97.6682C243.805 97.6682 267.827 122.207 267.827 152.477C267.827 182.747 243.805 207.287 214.172 207.287Z" fill="white"/>
<path fill-rule="evenodd" clip-rule="evenodd" d="M203.786 107.643C203.119 108.385 202.526 109.191 202.016 110.049C197.846 117.038 194.798 124.573 192.874 132.359C186.741 131.463 180.787 130.174 175.168 128.491C181.453 118.145 191.697 110.489 203.786 107.643ZM172.212 134.537C178.332 136.435 184.833 137.882 191.533 138.879C190.022 148.061 190.021 157.429 191.532 166.61C184.89 167.599 178.445 169.03 172.373 170.904C169.884 165.238 168.503 158.973 168.503 152.383C168.503 146.04 169.783 139.996 172.099 134.5C172.136 134.513 172.174 134.525 172.212 134.537ZM175.547 176.887C181.724 186.707 191.505 194.013 203.024 196.937C202.66 196.46 202.323 195.963 202.016 195.447C197.844 188.456 194.796 180.919 192.872 173.131C186.877 174.007 181.053 175.259 175.547 176.887ZM199.499 172.322C201.276 179.2 204.008 185.851 207.696 192.033L207.697 192.033C210.762 197.172 217.797 197.172 220.862 192.033L220.863 192.033C224.551 185.851 227.284 179.2 229.06 172.322C219.23 171.361 209.329 171.361 199.499 172.322ZM235.687 173.131C233.762 180.919 230.715 188.456 226.544 195.447C226.237 195.962 225.9 196.459 225.536 196.935C237.053 194.011 246.832 186.704 253.009 176.885C247.503 175.258 241.68 174.006 235.687 173.131ZM256.182 170.902C250.11 169.029 243.667 167.598 237.028 166.61C238.538 157.428 238.537 148.06 237.026 138.878C243.723 137.881 250.219 136.434 256.336 134.537C256.376 134.524 256.416 134.512 256.455 134.497C258.771 139.995 260.052 146.039 260.052 152.383C260.052 158.972 258.67 165.237 256.182 170.902ZM230.452 165.782C219.698 164.678 208.861 164.677 198.107 165.782C196.658 157.151 196.659 148.338 198.108 139.707C208.774 140.811 219.786 140.811 230.45 139.707C231.901 148.338 231.901 157.151 230.452 165.782ZM199.5 133.167C209.33 134.128 219.229 134.128 229.058 133.166C227.282 126.292 224.55 119.644 220.863 113.465C217.793 108.322 210.761 108.325 207.697 113.463L207.696 113.464C204.01 119.643 201.278 126.292 199.5 133.167ZM235.685 132.357C241.816 131.462 247.768 130.172 253.385 128.489C247.101 118.146 236.859 110.49 224.772 107.644C225.439 108.385 226.033 109.19 226.543 110.047L226.543 110.048C230.713 117.038 233.76 124.572 235.685 132.357Z" fill="#218AC4"/>
<defs>
<linearGradient id="paint0_linear_785_1535" x1="264.328" y1="373.393" x2="146.009" y2="-158.351" gradientUnits="userSpaceOnUse">
<stop stop-color="white"/>
<stop offset="1" stop-color="#EEEEEE"/>
</linearGradient>
<linearGradient id="paint1_linear_785_1535" x1="273.366" y1="164.368" x2="221.702" y2="-66.8898" gradientUnits="userSpaceOnUse">
<stop stop-color="white"/>
<stop offset="1" stop-color="#EEEEEE"/>
</linearGradient>
<linearGradient id="paint2_linear_785_1535" x1="124.62" y1="327.802" x2="77.9737" y2="112.925" gradientUnits="userSpaceOnUse">
<stop stop-color="white"/>
<stop offset="1" stop-color="#EEEEEE"/>
</linearGradient>
<linearGradient id="paint3_linear_785_1535" x1="306.985" y1="134.763" x2="394.536" y2="93.5611" gradientUnits="userSpaceOnUse">
<stop stop-color="white"/>
<stop offset="1" stop-color="#EEEEEE"/>
</linearGradient>
<linearGradient id="paint4_linear_785_1535" x1="396.422" y1="242.041" x2="324.855" y2="166.869" gradientUnits="userSpaceOnUse">
<stop stop-color="white"/>
<stop offset="1" stop-color="#EEEEEE"/>
</linearGradient>
<linearGradient id="paint5_linear_785_1535" x1="92.9996" y1="191.272" x2="21.6424" y2="79.8472" gradientUnits="userSpaceOnUse">
<stop stop-color="white"/>
<stop offset="1" stop-color="#EEEEEE"/>
</linearGradient>
<linearGradient id="paint6_linear_785_1535" x1="361.624" y1="167.556" x2="347.034" y2="167.556" gradientUnits="userSpaceOnUse">
<stop stop-color="#218AC4"/>
<stop offset="1" stop-color="#41A7DE"/>
</linearGradient>
<linearGradient id="paint7_linear_785_1535" x1="118.488" y1="227.291" x2="98.8235" y2="227.291" gradientUnits="userSpaceOnUse">
<stop stop-color="#218AC4"/>
<stop offset="1" stop-color="#41A7DE"/>
</linearGradient>
<linearGradient id="paint8_linear_785_1535" x1="110.083" y1="97.9044" x2="95.7629" y2="97.9044" gradientUnits="userSpaceOnUse">
<stop stop-color="#218AC4"/>
<stop offset="1" stop-color="#41A7DE"/>
</linearGradient>
<linearGradient id="paint9_linear_785_1535" x1="266.087" y1="72.8553" x2="252.766" y2="72.8553" gradientUnits="userSpaceOnUse">
<stop stop-color="#218AC4"/>
<stop offset="1" stop-color="#41A7DE"/>
</linearGradient>
<linearGradient id="paint10_linear_785_1535" x1="123.491" y1="152.477" x2="304.845" y2="152.477" gradientUnits="userSpaceOnUse">
<stop stop-color="#218AC4"/>
<stop offset="1" stop-color="#41A7DE"/>
</linearGradient>
</defs>
</svg>
