<svg width="168" height="46" viewBox="0 0 168 46" fill="none" xmlns="http://www.w3.org/2000/svg">
<path d="M23.9325 20.6233C23.9325 19.8533 23.7812 19.1108 23.4787 18.3958C23.19 17.667 22.7912 17.0276 22.2825 16.4776C21.7737 15.9138 21.1756 15.467 20.4881 15.137C19.8143 14.7932 19.0924 14.6213 18.3224 14.6213C17.5524 14.6213 16.8236 14.752 16.1361 15.0132C15.4624 15.2745 14.8711 15.6595 14.3624 16.1682C13.8674 16.677 13.4755 17.3095 13.1867 18.0657C12.898 18.8083 12.7536 19.6608 12.7536 20.6233C12.7536 21.5445 12.898 22.3764 13.1867 23.1189C13.4755 23.8477 13.8674 24.4733 14.3624 24.9958C14.8711 25.5183 15.4624 25.924 16.1361 26.2127C16.8236 26.4877 17.5524 26.6252 18.3224 26.6252C19.0924 26.6252 19.8143 26.4602 20.4881 26.1302C21.1756 25.7865 21.7737 25.3396 22.2825 24.7896C22.7912 24.2258 23.19 23.5864 23.4787 22.8714C23.7812 22.1427 23.9325 21.3933 23.9325 20.6233ZM29.6044 29.0796C29.6044 30.6334 29.3088 32.0909 28.7175 33.4522C28.1263 34.8134 27.315 36.0028 26.2838 37.0204C25.2662 38.0379 24.07 38.8422 22.695 39.4335C21.3337 40.0248 19.8762 40.3204 18.3224 40.3204L15.4968 40.2791V34.6484L18.2812 34.6897C19.1612 34.6897 19.9106 34.5728 20.5293 34.3391C21.1481 34.1191 21.6706 33.8097 22.0968 33.4109C22.5231 33.0259 22.86 32.579 23.1075 32.0703C23.3687 31.5615 23.575 31.0253 23.7262 30.4615C23.5062 30.819 23.19 31.1147 22.7775 31.3484C22.365 31.5684 21.9043 31.7472 21.3956 31.8847C20.9006 32.0359 20.3781 32.139 19.8281 32.194C19.2918 32.249 18.7899 32.2765 18.3224 32.2765C16.7686 32.2765 15.3043 32.0084 13.9292 31.4722C12.568 30.9359 11.3717 30.1728 10.3404 29.1828C9.32293 28.179 8.51855 26.9552 7.92729 25.5115C7.33603 24.0677 7.04041 22.4383 7.04041 20.6233C7.04041 18.9595 7.33603 17.4126 7.92729 15.9826C8.51855 14.5526 9.32293 13.3151 10.3404 12.27C11.3717 11.225 12.568 10.4069 13.9292 9.81564C15.3043 9.22439 16.7686 8.92876 18.3224 8.92876C19.0374 8.92876 19.7456 9.01814 20.4468 9.19689C21.1481 9.37564 21.8287 9.62314 22.4887 9.9394C23.1487 10.2557 23.7744 10.6269 24.3656 11.0532C24.9706 11.4794 25.5344 11.94 26.0569 12.4351L28.2432 9.81564H29.6044V29.0796Z" fill="#040F1C"/>
<path d="M39.587 31.864H33.9151V0.988037H39.587V31.864Z" fill="#040F1C"/>
<path d="M52.6841 26.4602C52.9041 26.529 53.1241 26.5771 53.3441 26.6046C53.5641 26.6183 53.7841 26.6252 54.0041 26.6252C54.5541 26.6252 55.0835 26.5496 55.5922 26.3983C56.101 26.2471 56.5754 26.034 57.0154 25.759C57.4691 25.4702 57.8679 25.1265 58.2116 24.7277C58.5692 24.3152 58.8579 23.8614 59.0779 23.3664L63.203 27.5121C62.6804 28.2546 62.0754 28.9215 61.3879 29.5128C60.7142 30.104 59.9785 30.6059 59.181 31.0184C58.3973 31.4309 57.5654 31.7403 56.6854 31.9465C55.8191 32.1665 54.9254 32.2765 54.0041 32.2765C52.4503 32.2765 50.9859 31.9878 49.6109 31.4103C48.2497 30.8328 47.0534 30.0284 46.0221 28.9971C45.0046 27.9659 44.2002 26.7421 43.609 25.3258C43.0177 23.8958 42.7221 22.3283 42.7221 20.6233C42.7221 18.877 43.0177 17.282 43.609 15.8382C44.2002 14.3945 45.0046 13.1638 46.0221 12.1463C47.0534 11.1288 48.2497 10.3382 49.6109 9.77439C50.9859 9.21064 52.4503 8.92876 54.0041 8.92876C54.9254 8.92876 55.826 9.03876 56.706 9.25876C57.586 9.47877 58.4179 9.79502 59.2017 10.2075C59.9992 10.62 60.7417 11.1288 61.4292 11.7338C62.1167 12.3251 62.7217 12.9919 63.2442 13.7344L52.6841 26.4602ZM55.5716 14.8482C55.3104 14.752 55.0491 14.6901 54.7879 14.6626C54.5403 14.6351 54.2791 14.6213 54.0041 14.6213C53.2341 14.6213 52.5053 14.7657 51.8178 15.0545C51.1441 15.3295 50.5528 15.7282 50.044 16.2507C49.549 16.7732 49.1572 17.4057 48.8684 18.1482C48.5797 18.877 48.4353 19.702 48.4353 20.6233C48.4353 20.8295 48.4422 21.0633 48.4559 21.3245C48.4834 21.5858 48.5178 21.8539 48.559 22.1289C48.614 22.3902 48.6759 22.6445 48.7447 22.8921C48.8134 23.1396 48.9028 23.3596 49.0128 23.5521L55.5716 14.8482Z" fill="#040F1C"/>
<path d="M87.3139 31.864H85.9526L83.7663 28.8321C83.2301 29.3134 82.6594 29.7671 82.0544 30.1934C81.4632 30.6059 80.8375 30.9703 80.1775 31.2865C79.5175 31.589 78.8369 31.8297 78.1356 32.0084C77.4481 32.1872 76.7469 32.2765 76.0319 32.2765C74.4781 32.2765 73.0137 32.0153 71.6387 31.4928C70.2774 30.9703 69.0812 30.214 68.0499 29.224C67.0324 28.2202 66.228 26.9965 65.6367 25.5527C65.0455 24.1089 64.7499 22.4658 64.7499 20.6233C64.7499 18.9045 65.0455 17.3301 65.6367 15.9001C66.228 14.4563 67.0324 13.2188 68.0499 12.1875C69.0812 11.1563 70.2774 10.3588 71.6387 9.79502C73.0137 9.21751 74.4781 8.92876 76.0319 8.92876C76.7469 8.92876 77.455 9.01814 78.1563 9.19689C78.8575 9.37564 79.5382 9.62314 80.1982 9.9394C80.8582 10.2557 81.4838 10.6269 82.0751 11.0532C82.6801 11.4794 83.2438 11.94 83.7663 12.4351L85.9526 9.81564H87.3139V31.864ZM81.6419 20.6233C81.6419 19.8533 81.4907 19.1108 81.1882 18.3958C80.8994 17.667 80.5007 17.0276 79.9919 16.4776C79.4832 15.9138 78.885 15.467 78.1975 15.137C77.5238 14.7932 76.8019 14.6213 76.0319 14.6213C75.2619 14.6213 74.5331 14.752 73.8456 15.0132C73.1718 15.2745 72.5806 15.6595 72.0718 16.1682C71.5768 16.677 71.1849 17.3095 70.8962 18.0657C70.6074 18.8083 70.463 19.6608 70.463 20.6233C70.463 21.5858 70.6074 22.4452 70.8962 23.2014C71.1849 23.9439 71.5768 24.5696 72.0718 25.0783C72.5806 25.5871 73.1718 25.9721 73.8456 26.2333C74.5331 26.4946 75.2619 26.6252 76.0319 26.6252C76.8019 26.6252 77.5238 26.4602 78.1975 26.1302C78.885 25.7865 79.4832 25.3396 79.9919 24.7896C80.5007 24.2258 80.8994 23.5864 81.1882 22.8714C81.4907 22.1427 81.6419 21.3933 81.6419 20.6233Z" fill="#040F1C"/>
<path d="M119.716 31.864H114.106V17.8389C114.106 17.4539 114.03 17.0895 113.879 16.7457C113.742 16.402 113.542 16.0995 113.281 15.8382C113.02 15.577 112.717 15.3776 112.374 15.2401C112.03 15.0888 111.665 15.0132 111.28 15.0132C110.895 15.0132 110.531 15.0888 110.187 15.2401C109.857 15.3776 109.562 15.577 109.3 15.8382C109.053 16.0995 108.854 16.402 108.702 16.7457C108.565 17.0895 108.496 17.4539 108.496 17.8389V31.864H102.865V17.8389C102.865 17.4539 102.79 17.0895 102.638 16.7457C102.501 16.402 102.302 16.0995 102.04 15.8382C101.779 15.577 101.477 15.3776 101.133 15.2401C100.789 15.0888 100.425 15.0132 100.04 15.0132C99.6546 15.0132 99.2903 15.0888 98.9465 15.2401C98.6165 15.3776 98.3209 15.577 98.0596 15.8382C97.8121 16.0995 97.6128 16.402 97.4615 16.7457C97.324 17.0895 97.2552 17.4539 97.2552 17.8389V31.864H91.6245V9.77439H92.9858L94.5121 11.4657C95.2958 10.8057 96.1552 10.2969 97.0902 9.9394C98.039 9.56814 99.0221 9.38251 100.04 9.38251C101.071 9.38251 102.075 9.57502 103.051 9.96002C104.041 10.345 104.907 11.0119 105.65 11.9607C105.993 11.4932 106.385 11.0944 106.825 10.7644C107.265 10.4344 107.726 10.1663 108.207 9.96002C108.702 9.75377 109.211 9.60939 109.734 9.52689C110.256 9.43064 110.772 9.38251 111.28 9.38251C112.449 9.38251 113.542 9.60252 114.56 10.0425C115.591 10.4825 116.485 11.0875 117.241 11.8575C118.011 12.6138 118.616 13.5076 119.056 14.5388C119.496 15.5701 119.716 16.6701 119.716 17.8389V31.864Z" fill="#040F1C"/>
<path d="M128.915 31.864H123.982V7.21686H128.915V17.0826H138.764V7.21686H143.696V31.864H138.764V22.0155H128.915V31.864Z" fill="#116DD6"/>
<path d="M153.218 12.1497V22.0155H158.151C158.827 22.0155 159.463 21.8894 160.059 21.6374C160.655 21.3738 161.176 21.0186 161.623 20.5717C162.07 20.1248 162.42 19.6035 162.672 19.0076C162.935 18.4003 163.067 17.7587 163.067 17.0826C163.067 16.4066 162.935 15.7706 162.672 15.1748C162.42 14.5675 162.07 14.0404 161.623 13.5935C161.176 13.1466 160.655 12.7971 160.059 12.5451C159.463 12.2815 158.827 12.1497 158.151 12.1497H153.218ZM153.218 31.864H148.286V7.21686H158.151C159.057 7.21686 159.927 7.33718 160.764 7.57781C161.6 7.80697 162.379 8.13927 163.101 8.57469C163.835 8.99866 164.499 9.51429 165.095 10.1216C165.702 10.7174 166.218 11.382 166.642 12.1154C167.077 12.8487 167.41 13.6336 167.639 14.4701C167.88 15.3065 168 16.1774 168 17.0826C168 17.9305 167.891 18.7555 167.673 19.5576C167.467 20.3597 167.163 21.1217 166.762 21.8436C166.373 22.5655 165.891 23.2301 165.319 23.8374C164.746 24.4447 164.104 24.9718 163.394 25.4186L166.126 31.864H160.884L158.736 26.8968L153.218 26.9312V31.864Z" fill="#116DD6"/>
<path d="M7.04009 4.50808C7.04009 6.45215 5.46411 8.02812 3.52004 8.02812C1.57598 8.02812 0 6.45215 0 4.50808C0 2.56401 1.57598 0.988037 3.52004 0.988037C5.46411 0.988037 7.04009 2.56401 7.04009 4.50808Z" fill="#116DD6"/>
<path d="M35.5806 42.572H34.1463V34.7074H35.5806V37.1924C35.7522 37.0628 35.9291 36.9717 36.1112 36.9192C36.2933 36.8631 36.4789 36.8351 36.6681 36.8351C37.0148 36.8351 37.3405 36.9017 37.6452 37.0347C37.9499 37.1643 38.2144 37.3447 38.4385 37.5759C38.6662 37.8035 38.8448 38.0715 38.9744 38.3797C39.1075 38.6844 39.174 39.0101 39.174 39.3568V42.572H37.7293V39.3568H37.7398C37.7398 39.2097 37.7118 39.0714 37.6557 38.9418C37.5997 38.8087 37.5227 38.6931 37.4246 38.5951C37.3265 38.497 37.2127 38.4199 37.0831 38.3639C36.9535 38.3079 36.8152 38.2798 36.6681 38.2798C36.5175 38.2798 36.3756 38.3079 36.2425 38.3639C36.1094 38.4199 35.9939 38.497 35.8958 38.5951C35.7977 38.6931 35.7207 38.8087 35.6646 38.9418C35.6086 39.0714 35.5806 39.2097 35.5806 39.3568V42.572ZM42.1053 35.4166C42.1053 35.5497 42.079 35.6741 42.0265 35.7896C41.9775 35.9052 41.9092 36.0068 41.8216 36.0944C41.7341 36.1784 41.6307 36.2467 41.5117 36.2992C41.3961 36.3483 41.2717 36.3728 41.1387 36.3728C41.0056 36.3728 40.8795 36.3483 40.7604 36.2992C40.6448 36.2467 40.5433 36.1784 40.4557 36.0944C40.3716 36.0068 40.3033 35.9052 40.2508 35.7896C40.2018 35.6741 40.1773 35.5497 40.1773 35.4166C40.1773 35.2871 40.2018 35.1645 40.2508 35.0489C40.3033 34.9298 40.3716 34.8282 40.4557 34.7442C40.5433 34.6566 40.6448 34.5883 40.7604 34.5393C40.8795 34.4868 41.0056 34.4605 41.1387 34.4605C41.2717 34.4605 41.3961 34.4868 41.5117 34.5393C41.6307 34.5883 41.7341 34.6566 41.8216 34.7442C41.9092 34.8282 41.9775 34.9298 42.0265 35.0489C42.079 35.1645 42.1053 35.2871 42.1053 35.4166ZM41.8584 42.572H40.4137V36.9454H41.8584V42.572ZM44.6058 42.572H43.1716V36.9454H43.5183L43.9911 37.6126C44.2223 37.4025 44.485 37.2414 44.7792 37.1293C45.0734 37.0137 45.3781 36.9559 45.6933 36.9559H46.9594V38.3849H45.6933C45.5427 38.3849 45.4009 38.4129 45.2678 38.469C45.1347 38.525 45.0191 38.6021 44.921 38.7001C44.823 38.7982 44.7459 38.9138 44.6899 39.0469C44.6338 39.18 44.6058 39.3218 44.6058 39.4724V42.572ZM49.5335 35.4166C49.5335 35.5497 49.5072 35.6741 49.4547 35.7896C49.4056 35.9052 49.3373 36.0068 49.2498 36.0944C49.1622 36.1784 49.0589 36.2467 48.9398 36.2992C48.8242 36.3483 48.6999 36.3728 48.5668 36.3728C48.4337 36.3728 48.3076 36.3483 48.1885 36.2992C48.073 36.2467 47.9714 36.1784 47.8838 36.0944C47.7998 36.0068 47.7315 35.9052 47.6789 35.7896C47.6299 35.6741 47.6054 35.5497 47.6054 35.4166C47.6054 35.2871 47.6299 35.1645 47.6789 35.0489C47.7315 34.9298 47.7998 34.8282 47.8838 34.7442C47.9714 34.6566 48.073 34.5883 48.1885 34.5393C48.3076 34.4868 48.4337 34.4605 48.5668 34.4605C48.6999 34.4605 48.8242 34.4868 48.9398 34.5393C49.0589 34.5883 49.1622 34.6566 49.2498 34.7442C49.3373 34.8282 49.4056 34.9298 49.4547 35.0489C49.5072 35.1645 49.5335 35.2871 49.5335 35.4166ZM49.2865 42.572H47.8418V36.9454H49.2865V42.572ZM52.034 42.572H50.5997V36.9454H50.9465L51.4193 37.4918C51.6504 37.2817 51.9114 37.1206 52.2021 37.0085C52.4963 36.8929 52.8027 36.8351 53.1215 36.8351C53.4647 36.8351 53.7887 36.9017 54.0934 37.0347C54.3981 37.1643 54.6643 37.3447 54.8919 37.5759C55.1196 37.8035 55.2982 38.0715 55.4278 38.3797C55.5609 38.6844 55.6274 39.0101 55.6274 39.3568V42.572H54.1932V39.3568C54.1932 39.2097 54.1652 39.0714 54.1091 38.9418C54.0531 38.8087 53.976 38.6931 53.878 38.5951C53.7799 38.497 53.6661 38.4199 53.5365 38.3639C53.4069 38.3079 53.2686 38.2798 53.1215 38.2798C52.9708 38.2798 52.829 38.3079 52.6959 38.3639C52.5628 38.4199 52.4472 38.497 52.3492 38.5951C52.2511 38.6931 52.1741 38.8087 52.118 38.9418C52.062 39.0714 52.034 39.2097 52.034 39.3568V42.572ZM60.8703 39.7088C60.8703 39.5127 60.8317 39.3236 60.7547 39.1414C60.6811 38.9558 60.5796 38.7929 60.45 38.6528C60.3204 38.5093 60.168 38.3954 59.9929 38.3114C59.8213 38.2238 59.6374 38.18 59.4413 38.18C59.2452 38.18 59.0595 38.2133 58.8844 38.2798C58.7128 38.3464 58.5622 38.4445 58.4326 38.574C58.3065 38.7036 58.2067 38.8647 58.1332 39.0574C58.0596 39.2465 58.0228 39.4637 58.0228 39.7088C58.0228 39.9435 58.0596 40.1554 58.1332 40.3445C58.2067 40.5301 58.3065 40.6895 58.4326 40.8226C58.5622 40.9557 58.7128 41.059 58.8844 41.1325C59.0595 41.2026 59.2452 41.2376 59.4413 41.2376C59.6374 41.2376 59.8213 41.1956 59.9929 41.1115C60.168 41.024 60.3204 40.9101 60.45 40.77C60.5796 40.6264 60.6811 40.4636 60.7547 40.2815C60.8317 40.0958 60.8703 39.905 60.8703 39.7088ZM62.315 41.8628C62.315 42.2586 62.2397 42.6298 62.0891 42.9765C61.9385 43.3233 61.7319 43.6262 61.4692 43.8854C61.21 44.1446 60.9053 44.3495 60.5551 44.5001C60.2083 44.6507 59.8371 44.726 59.4413 44.726L58.7216 44.7155V43.2813L59.4308 43.2918C59.6549 43.2918 59.8458 43.262 60.0034 43.2025C60.161 43.1464 60.2941 43.0676 60.4027 42.966C60.5113 42.868 60.5971 42.7541 60.6601 42.6246C60.7267 42.495 60.7792 42.3584 60.8177 42.2148C60.7617 42.3058 60.6811 42.3811 60.5761 42.4407C60.471 42.4967 60.3537 42.5423 60.2241 42.5773C60.098 42.6158 59.9649 42.6421 59.8248 42.6561C59.6882 42.6701 59.5604 42.6771 59.4413 42.6771C59.0455 42.6771 58.6725 42.6088 58.3223 42.4722C57.9755 42.3356 57.6708 42.1412 57.4082 41.8891C57.149 41.6334 56.9441 41.3217 56.7935 40.9539C56.6429 40.5862 56.5676 40.1711 56.5676 39.7088C56.5676 39.285 56.6429 38.891 56.7935 38.5268C56.9441 38.1625 57.149 37.8473 57.4082 37.5811C57.6708 37.3149 57.9755 37.1065 58.3223 36.9559C58.6725 36.8053 59.0455 36.73 59.4413 36.73C59.6234 36.73 59.8038 36.7528 59.9824 36.7983C60.161 36.8439 60.3344 36.9069 60.5025 36.9875C60.6706 37.068 60.83 37.1626 60.9806 37.2712C61.1347 37.3797 61.2783 37.4971 61.4114 37.6231L61.9683 36.9559H62.315V41.8628Z" fill="#959595"/>
</svg>
