<svg width="428" height="305" viewBox="0 0 428 305" fill="none" xmlns="http://www.w3.org/2000/svg">
<g clip-path="url(#clip0_785_1628)">
<path fill-rule="evenodd" clip-rule="evenodd" d="M169.918 99.4986C150.954 102.086 136.298 118.16 136.298 137.815C136.298 159.264 153.706 176.659 175.174 176.659H260.701C277.877 176.659 291.802 162.745 291.802 145.584C291.802 128.422 277.877 114.508 260.701 114.508C260.701 88.7616 239.817 67.8945 214.05 67.8945C193.546 67.8945 176.177 81.1249 169.918 99.4986ZM53.4865 130.274C42.0775 131.829 33.2598 141.492 33.2598 153.307C33.2598 166.202 43.7335 176.659 56.6487 176.659H108.104C118.437 176.659 126.815 168.294 126.815 157.978C126.815 147.661 118.437 139.297 108.104 139.297C108.104 123.819 95.5397 111.275 80.0377 111.275C67.702 111.275 57.2518 119.228 53.4865 130.274Z" fill="white" stroke="#E1E4E5" stroke-width="4.21"/>
<path fill-rule="evenodd" clip-rule="evenodd" d="M257.034 130.274C245.624 131.829 236.807 141.492 236.807 153.307C236.807 166.202 247.28 176.659 260.195 176.659H311.651C321.984 176.659 330.362 168.294 330.362 157.978C330.362 147.661 321.984 139.297 311.651 139.297C311.651 123.819 299.087 111.275 283.584 111.275C271.249 111.275 260.799 119.228 257.034 130.274ZM174.184 176.659H50.5503C38.945 176.659 39.4776 167.103 43.2685 163.773C47.1539 160.36 54.8308 161.744 54.8308 161.744C54.8308 161.744 57.1165 155.316 64.6396 152.187C71.2942 149.419 78.2653 150.736 78.2653 150.736C78.2653 150.736 78.2653 146.325 82.5259 142.671C86.787 139.017 92.4685 139.372 92.4685 139.372C92.4685 139.372 96.3739 115.047 122.472 115.047C148.569 115.047 151.587 137.951 151.587 137.951C151.587 137.951 157.446 137.951 161.707 141.858C165.968 145.765 166.5 150.203 166.5 150.203C166.5 150.203 180.75 148.283 184.965 160.576C187.476 167.903 182.316 176.659 174.184 176.659Z" fill="white" stroke="#E1E4E5" stroke-width="4.21"/>
<path fill-rule="evenodd" clip-rule="evenodd" d="M386.53 176.659H262.357C250.701 176.659 251.236 167.103 255.043 163.773C258.945 160.36 266.656 161.744 266.656 161.744C266.656 161.744 268.951 155.316 276.508 152.187C283.191 149.419 290.193 150.736 290.193 150.736C290.193 150.736 290.193 146.325 294.472 142.671C298.752 139.017 304.458 139.372 304.458 139.372C304.458 139.372 308.381 115.047 334.592 115.047C360.804 115.047 363.835 137.952 363.835 137.952C363.835 137.952 369.72 137.952 373.999 141.858C378.279 145.765 378.813 150.203 378.813 150.203C378.813 150.203 393.125 148.283 397.358 160.576C399.88 167.904 394.698 176.659 386.53 176.659Z" fill="white" stroke="#E1E4E5" stroke-width="4.21"/>
<path fill-rule="evenodd" clip-rule="evenodd" d="M242.094 144.019C257.638 159.478 257.638 184.541 242.094 200C226.551 215.459 201.35 215.459 185.807 200C170.264 184.541 170.264 159.478 185.807 144.019C201.35 128.56 226.551 128.56 242.094 144.019Z" fill="#218AC4"/>
<path fill-rule="evenodd" clip-rule="evenodd" d="M239.557 146.543C225.415 132.477 202.486 132.477 188.344 146.543C174.203 160.608 174.203 183.411 188.344 197.477C202.486 211.542 225.415 211.542 239.557 197.476C253.699 183.411 253.699 160.608 239.557 146.543ZM183.269 141.495C200.214 124.643 227.687 124.643 244.632 141.495C261.577 158.348 261.577 185.671 244.632 202.524C227.687 219.377 200.214 219.377 183.269 202.524L183.269 202.524C166.325 185.671 166.325 158.348 183.269 141.495L183.269 141.495Z" fill="#218AC4"/>
<path fill-rule="evenodd" clip-rule="evenodd" d="M203.172 163.999C203.141 158.047 207.996 153.256 213.932 153.256C219.886 153.256 224.729 158.041 224.729 163.977C224.729 167.607 222.914 170.816 220.137 172.756V184.189C220.137 187.587 217.367 190.342 213.95 190.342C210.534 190.342 207.764 187.587 207.764 184.189V172.755C204.993 170.82 203.179 167.62 203.172 163.999ZM214.635 162.544C214.41 162.519 214.182 162.507 213.95 162.507C213.944 162.507 213.938 162.507 213.932 162.507C213.707 162.507 213.485 162.52 213.266 162.544C213.468 162.449 213.694 162.394 213.932 162.391C213.938 162.391 213.944 162.391 213.95 162.391C214.196 162.391 214.428 162.446 214.635 162.544Z" fill="white"/>
<path fill-rule="evenodd" clip-rule="evenodd" d="M213.589 108.127C205.659 108.127 198.98 113.53 197.098 120.844C196.251 124.136 192.881 126.122 189.571 125.279C186.262 124.437 184.265 121.085 185.112 117.794C188.361 105.169 199.868 95.822 213.589 95.822C229.822 95.822 242.977 108.905 242.977 125.049V139.605C242.977 143.003 240.207 145.757 236.791 145.757C233.374 145.757 230.605 143.003 230.605 139.605V125.049C230.605 115.701 222.989 108.127 213.589 108.127Z" fill="#218AC4"/>
<path d="M122.518 203.764H155.346M70.1978 192.81H103.026M29.5808 205.818H62.4095M203.752 235.944H236.58M151.432 224.989H184.26M110.815 237.999H143.643M339.326 221.567H372.154M358.922 196.774H391.751M294.623 210.612H327.451M272.952 192.373H305.78M254.006 223.62H286.834" stroke="#E1E4E5" stroke-width="4.21" stroke-linecap="round" stroke-linejoin="round"/>
<path d="M337.099 161.624C327.04 163.994 316.399 155.509 316.399 155.509C316.399 155.509 322.077 143.185 332.141 140.823C342.201 138.452 352.838 146.93 352.838 146.93C352.838 146.93 347.16 159.254 337.099 161.624Z" fill="url(#paint0_linear_785_1628)"/>
<path d="M99.5065 96.233C108.627 102.481 122.561 98.1133 122.561 98.1133C122.561 98.1133 121.698 83.6172 112.572 77.3754C103.451 71.1269 89.5229 75.4884 89.5229 75.4884C89.5229 75.4884 90.3857 89.9851 99.5065 96.233Z" fill="url(#paint1_linear_785_1628)"/>
<path d="M350.743 168.708C346.789 168.708 343.583 171.768 343.583 175.544C343.583 179.319 346.789 182.38 350.743 182.38C354.698 182.38 357.903 179.319 357.903 175.544C357.903 171.768 354.698 168.708 350.743 168.708Z" fill="#218AC4"/>
<path d="M277.138 98.6345C273.341 98.6345 270.264 95.7014 270.264 92.0831C270.264 88.4649 273.341 85.5317 277.138 85.5317C280.934 85.5317 284.011 88.4649 284.011 92.0831C284.011 95.7014 280.934 98.6345 277.138 98.6345Z" fill="#218AC4"/>
<path d="M315.802 102.053C313.113 102.053 310.933 99.8849 310.933 97.2105C310.933 94.5362 313.113 92.3682 315.802 92.3682C318.491 92.3682 320.671 94.5362 320.671 97.2105C320.671 99.8849 318.491 102.053 315.802 102.053Z" fill="#E1E4E5"/>
<path d="M233.414 85.658C234.092 88.1768 232.589 90.7657 230.057 91.4406C227.524 92.1154 224.921 90.6207 224.243 88.102C223.564 85.5833 225.067 82.9944 227.6 82.3195C230.132 81.6446 232.735 83.1393 233.414 85.658Z" fill="#E1E4E5"/>
<path d="M385.904 129.335H385.987C386.48 136.108 391.675 136.213 391.675 136.213C391.675 136.213 385.947 136.321 385.947 144.147C385.947 136.321 380.219 136.213 380.219 136.213C380.219 136.213 385.411 136.108 385.904 129.335Z" fill="#E1E4E5"/>
<path d="M99.8537 160.162C98.1137 160.162 96.7032 158.631 96.7032 156.743C96.7032 154.856 98.1137 153.325 99.8537 153.325C101.594 153.325 103.004 154.856 103.004 156.743C103.004 158.631 101.594 160.162 99.8537 160.162Z" fill="#218AC4"/>
<path d="M129.586 188.289C130.006 189.851 129.075 191.456 127.504 191.874C125.934 192.293 124.32 191.366 123.899 189.804C123.479 188.243 124.41 186.637 125.981 186.219C127.551 185.8 129.165 186.727 129.586 188.289Z" fill="#E1E4E5"/>
<path d="M128.207 139.653C125.993 139.653 124.198 137.995 124.198 135.95C124.198 133.905 125.993 132.247 128.207 132.247C130.422 132.247 132.217 133.905 132.217 135.95C132.217 137.995 130.422 139.653 128.207 139.653Z" fill="#E1E4E5"/>
<path d="M158.21 68.4409H158.347C159.16 79.9028 167.731 80.0797 167.731 80.0797C167.731 80.0797 158.28 80.2632 158.28 93.5073C158.28 80.2632 148.829 80.0797 148.829 80.0797C148.829 80.0797 157.396 79.9028 158.21 68.4409Z" fill="#E1E4E5"/>
</g>
<defs>
<linearGradient id="paint0_linear_785_1628" x1="299.216" y1="167.518" x2="387.106" y2="125.768" gradientUnits="userSpaceOnUse">
<stop stop-color="white"/>
<stop offset="1" stop-color="#EEEEEE"/>
</linearGradient>
<linearGradient id="paint1_linear_785_1628" x1="135.035" y1="116.734" x2="63.6514" y2="41.0497" gradientUnits="userSpaceOnUse">
<stop stop-color="white"/>
<stop offset="1" stop-color="#EEEEEE"/>
</linearGradient>
<clipPath id="clip0_785_1628">
<rect width="460" height="305" fill="white" transform="translate(-16)"/>
</clipPath>
</defs>
</svg>
