<svg width="170" height="46" viewBox="0 0 170 46" fill="none" xmlns="http://www.w3.org/2000/svg">
<path d="M8.85505 5.17061C9.24936 2.74144 7.59978 0.452552 5.17061 0.0582419C2.74144 -0.336068 0.452552 1.31351 0.0582419 3.74268C-0.336068 6.17185 1.31351 8.46074 3.74268 8.85505C6.17185 9.24936 8.46074 7.59978 8.85505 5.17061Z" fill="#218AC4"/>
<path d="M33.4065 37.7102C33.4065 37.6642 33.4244 37.6199 33.4566 37.587C33.4887 37.554 33.5324 37.5348 33.5784 37.5336H33.8154C33.8611 37.5369 33.9042 37.5565 33.9366 37.5889C33.9691 37.6214 33.9887 37.6644 33.992 37.7102V39.5967C34.311 39.4391 34.663 39.3594 35.0188 39.3643C36.1293 39.3643 36.7705 40.2053 36.7705 41.288C36.7705 42.3706 36.055 43.2395 35.1071 43.2395C34.8908 43.2441 34.6758 43.2053 34.4747 43.1255C34.2736 43.0457 34.0905 42.9265 33.9362 42.7749L33.8897 43.0165C33.8863 43.0576 33.8678 43.096 33.8378 43.1243C33.8078 43.1526 33.7683 43.1688 33.7271 43.1698H33.5831C33.5366 43.1686 33.4924 43.1496 33.4595 43.1168C33.4267 43.0839 33.4077 43.0397 33.4065 42.9932V37.7102ZM35.0467 42.7005C35.7204 42.7005 36.1665 42.0175 36.1665 41.3066C36.1846 41.1323 36.1662 40.9562 36.1126 40.7895C36.059 40.6227 35.9713 40.4689 35.855 40.3378C35.7388 40.2067 35.5966 40.1013 35.4375 40.0281C35.2783 39.9549 35.1057 39.9156 34.9305 39.9126C34.6074 39.9206 34.2901 40 34.0012 40.1449V42.1058C34.12 42.2767 34.2756 42.4188 34.4565 42.5217C34.6374 42.6246 34.8391 42.6857 35.0467 42.7005Z" fill="#727373"/>
<path d="M37.3141 39.6431C37.2677 39.5223 37.3141 39.4433 37.4582 39.4433H37.7974C37.8309 39.4425 37.8639 39.4519 37.8921 39.4701C37.9203 39.4883 37.9423 39.5146 37.9554 39.5455L39.0101 42.4914L40.26 39.5455C40.2744 39.5146 40.2973 39.4885 40.3262 39.4704C40.3551 39.4522 40.3886 39.4428 40.4226 39.4433H40.72C40.8641 39.4433 40.9198 39.5316 40.864 39.6524L38.5408 44.9447C38.5257 44.9758 38.5027 45.0024 38.4742 45.022C38.4457 45.0415 38.4126 45.0533 38.3782 45.0563H38.0901C37.9461 45.0563 37.881 44.9633 37.9368 44.8332L38.6523 43.1419L37.3141 39.6431Z" fill="#727373"/>
<path d="M46.1425 37.4546C46.8607 37.4474 47.5549 37.7131 48.0847 38.1981C48.1145 38.2285 48.1312 38.2693 48.1312 38.3119C48.1312 38.3545 48.1145 38.3953 48.0847 38.4257C48.015 38.4954 47.9267 38.5744 47.8617 38.6488C47.7966 38.7231 47.7409 38.7231 47.6526 38.6488C47.2319 38.2712 46.6933 38.0512 46.1286 38.0261C45.5598 38.0887 45.0342 38.359 44.6524 38.7851C44.2706 39.2112 44.0594 39.7633 44.0594 40.3354C44.0594 40.9076 44.2706 41.4596 44.6524 41.8858C45.0342 42.3119 45.5598 42.5821 46.1286 42.6447C46.6305 42.6543 47.127 42.5394 47.5736 42.3102V41.1764H46.6443C46.625 41.1771 46.6058 41.1738 46.5878 41.1668C46.5698 41.1599 46.5533 41.1494 46.5395 41.1359C46.5256 41.1225 46.5145 41.1064 46.507 41.0886C46.4995 41.0708 46.4956 41.0517 46.4956 41.0324V40.735C46.4943 40.7149 46.4972 40.6948 46.5042 40.6759C46.5111 40.657 46.5219 40.6398 46.536 40.6254C46.55 40.6109 46.5668 40.5996 46.5855 40.5921C46.6042 40.5845 46.6242 40.581 46.6443 40.5817H48.0383C48.0773 40.5841 48.1139 40.6013 48.1407 40.6298C48.1675 40.6583 48.1824 40.6959 48.1823 40.735V42.5704C48.1782 42.6205 48.1549 42.6671 48.1172 42.7005C47.5155 43.0479 46.8327 43.2306 46.1379 43.2302C45.7489 43.2458 45.3608 43.1827 44.9968 43.0446C44.6328 42.9065 44.3005 42.6963 44.0198 42.4266C43.739 42.1569 43.5157 41.8333 43.3631 41.4751C43.2105 41.117 43.1319 40.7317 43.1319 40.3424C43.1319 39.9531 43.2105 39.5678 43.3631 39.2097C43.5157 38.8516 43.739 38.5279 44.0198 38.2582C44.3005 37.9885 44.6328 37.7783 44.9968 37.6402C45.3608 37.5021 45.7489 37.439 46.1379 37.4546H46.1425Z" fill="#727373"/>
<path d="M49.3206 37.7102C49.3203 37.6652 49.3368 37.6217 49.3669 37.5882C49.397 37.5547 49.4384 37.5336 49.4832 37.529H49.7248C49.7705 37.5322 49.8136 37.5519 49.846 37.5843C49.8785 37.6167 49.8981 37.6598 49.9014 37.7055V42.9747C49.8991 43.0208 49.8798 43.0644 49.8471 43.097C49.8145 43.1296 49.7709 43.149 49.7248 43.1512H49.4832C49.4367 43.15 49.3925 43.1311 49.3596 43.0982C49.3268 43.0653 49.3078 43.0211 49.3066 42.9747L49.3206 37.7102Z" fill="#727373"/>
<path d="M52.824 39.3875C53.2108 39.3718 53.5934 39.4722 53.9226 39.6759C54.2517 39.8796 54.5123 40.1773 54.6708 40.5305C54.8292 40.8837 54.8782 41.2762 54.8115 41.6575C54.7448 42.0388 54.5653 42.3914 54.2964 42.6698C54.0274 42.9482 53.6812 43.1396 53.3024 43.2195C52.9236 43.2993 52.5296 43.2638 52.1712 43.1176C51.8127 42.9714 51.5063 42.7212 51.2914 42.3992C51.0765 42.0772 50.9629 41.6983 50.9654 41.3112C50.9616 40.811 51.1541 40.3293 51.5016 39.9696C51.8492 39.6099 52.324 39.4009 52.824 39.3875ZM52.824 42.7237C53.1035 42.748 53.3839 42.6874 53.6285 42.5497C53.873 42.4121 54.0704 42.2038 54.1946 41.9522C54.3189 41.7006 54.3643 41.4174 54.3249 41.1395C54.2856 40.8617 54.1633 40.6022 53.974 40.3949C53.7848 40.1877 53.5374 40.0425 53.2642 39.9782C52.9911 39.9138 52.7049 39.9335 52.4431 40.0345C52.1812 40.1355 51.956 40.3132 51.7968 40.5443C51.6376 40.7754 51.5519 41.0491 51.5508 41.3298C51.5407 41.6796 51.6686 42.0194 51.9067 42.2758C52.1449 42.5322 52.4743 42.6848 52.824 42.7005V42.7237Z" fill="#727373"/>
<path d="M57.847 40.3587L56.755 43.1465C56.7448 43.1771 56.7245 43.2033 56.6975 43.221C56.6706 43.2387 56.6385 43.2469 56.6063 43.2441H56.5552C56.5219 43.2474 56.4883 43.2396 56.4598 43.222C56.4313 43.2043 56.4093 43.1779 56.3973 43.1465L55.3704 39.6571C55.3379 39.5362 55.3704 39.448 55.5144 39.448H55.7886C55.8238 39.4445 55.8591 39.4526 55.8893 39.471C55.9195 39.4895 55.9429 39.5173 55.9558 39.5502L56.6389 42.0732L57.6797 39.4572C57.697 39.4299 57.7224 39.4085 57.7523 39.396C57.7823 39.3836 57.8153 39.3806 57.847 39.3876H57.8934C57.925 39.3846 57.9566 39.3915 57.9841 39.4073C58.0116 39.4232 58.0334 39.4471 58.0468 39.4758L59.0829 42.0965L59.766 39.5688C59.777 39.5374 59.7979 39.5105 59.8255 39.4921C59.8532 39.4736 59.8861 39.4647 59.9193 39.4665H60.1981C60.3282 39.4665 60.37 39.5548 60.3282 39.6756L59.3152 43.1651C59.3043 43.1953 59.2839 43.221 59.2571 43.2386C59.2303 43.2562 59.1985 43.2646 59.1666 43.2627H59.1154C59.0826 43.2627 59.0505 43.2536 59.0226 43.2364C58.9947 43.2191 58.9721 43.1945 58.9575 43.1651L57.8423 40.3773L57.847 40.3587Z" fill="#727373"/>
<path d="M61.3223 37.7102C61.3246 37.6641 61.3439 37.6205 61.3766 37.5878C61.4092 37.5552 61.4528 37.5359 61.4989 37.5336H61.7405C61.7863 37.5369 61.8293 37.5565 61.8618 37.5889C61.8942 37.6214 61.9138 37.6644 61.9171 37.7102V42.9747C61.9148 43.0208 61.8955 43.0644 61.8629 43.097C61.8302 43.1296 61.7866 43.149 61.7405 43.1512H61.4989C61.4524 43.15 61.4082 43.1311 61.3754 43.0982C61.3425 43.0653 61.3235 43.0211 61.3223 42.9747V37.7102Z" fill="#727373"/>
<path d="M64.8166 39.3875C65.2033 39.3718 65.586 39.4722 65.9152 39.6759C66.2443 39.8796 66.5049 40.1773 66.6634 40.5305C66.8218 40.8837 66.8708 41.2762 66.8041 41.6575C66.7373 42.0388 66.5579 42.3914 66.2889 42.6698C66.02 42.9482 65.6738 43.1396 65.295 43.2195C64.9162 43.2993 64.5222 43.2638 64.1637 43.1176C63.8053 42.9714 63.4989 42.7212 63.284 42.3992C63.069 42.0772 62.9555 41.6983 62.958 41.3112C62.9541 40.811 63.1467 40.3293 63.4942 39.9696C63.8418 39.6099 64.3166 39.4009 64.8166 39.3875ZM64.8166 42.7237C65.096 42.7471 65.376 42.6856 65.62 42.5473C65.864 42.409 66.0606 42.2004 66.1841 41.9486C66.3077 41.6968 66.3524 41.4137 66.3124 41.1361C66.2725 40.8585 66.1498 40.5994 65.9603 40.3927C65.7708 40.186 65.5233 40.0412 65.2502 39.9773C64.9772 39.9134 64.6912 39.9334 64.4296 40.0346C64.1681 40.1358 63.9432 40.3136 63.7842 40.5446C63.6253 40.7757 63.5397 41.0493 63.5388 41.3298C63.5287 41.6804 63.6572 42.0208 63.8963 42.2774C64.1355 42.5339 64.4661 42.6859 64.8166 42.7005V42.7237Z" fill="#727373"/>
<path d="M70.8569 43.1744C70.8569 44.4429 70.081 44.9076 69.24 44.9076C68.7694 44.9025 68.3142 44.7388 67.9482 44.4429C67.9173 44.4168 67.8962 44.3809 67.8886 44.3411C67.881 44.3014 67.8873 44.2602 67.9064 44.2245L68.069 43.9922C68.1248 43.9039 68.2177 43.9039 68.306 43.9922C68.5609 44.2265 68.8895 44.3646 69.2353 44.3825C69.8208 44.3825 70.2668 44.0619 70.2668 43.1977V42.9328C69.967 43.1466 69.6082 43.2619 69.24 43.2627C68.9313 43.2728 68.6247 43.209 68.3457 43.0766C68.0667 42.9442 67.8234 42.747 67.636 42.5014C67.4487 42.2559 67.3228 41.9692 67.2688 41.6651C67.2147 41.361 67.2342 41.0484 67.3255 40.7534C67.4168 40.4584 67.5773 40.1894 67.7936 39.969C68.0099 39.7486 68.2757 39.5831 68.569 39.4863C68.8623 39.3894 69.1744 39.3641 69.4795 39.4124C69.7845 39.4607 70.0736 39.5812 70.3226 39.7639L70.3783 39.5966C70.4202 39.5223 70.462 39.4665 70.5549 39.4665H70.6711C70.7176 39.4687 70.7618 39.4879 70.7952 39.5204C70.8286 39.5529 70.8489 39.5966 70.8523 39.6431L70.8569 43.1744ZM69.3282 42.7098C69.6597 42.6954 69.981 42.591 70.2575 42.4078V40.3587C70.1335 40.2196 69.9828 40.1068 69.8144 40.027C69.646 39.9472 69.4633 39.902 69.2771 39.894C69.1058 39.9032 68.9381 39.9471 68.7842 40.0229C68.6303 40.0988 68.4934 40.2051 68.3817 40.3354C68.2701 40.4657 68.1861 40.6173 68.1347 40.7811C68.0834 40.9448 68.0658 41.1172 68.083 41.288C68.0684 41.4612 68.0889 41.6357 68.1431 41.8009C68.1974 41.9661 68.2843 42.1187 68.3988 42.2497C68.5132 42.3806 68.6529 42.4872 68.8093 42.563C68.9658 42.6389 69.136 42.6825 69.3096 42.6912L69.3282 42.7098Z" fill="#727373"/>
<path d="M71.9396 38.054C71.9387 37.9673 71.9636 37.8822 72.0113 37.8096C72.0589 37.7371 72.1271 37.6804 72.2071 37.6468C72.2871 37.6131 72.3753 37.6041 72.4604 37.6208C72.5456 37.6375 72.6238 37.6792 72.6852 37.7406C72.7466 37.8019 72.7883 37.8802 72.805 37.9653C72.8217 38.0505 72.8126 38.1387 72.779 38.2187C72.7454 38.2987 72.6887 38.3668 72.6161 38.4145C72.5436 38.4621 72.4585 38.4871 72.3717 38.4861C72.2575 38.4849 72.1483 38.439 72.0675 38.3582C71.9867 38.2775 71.9408 38.1683 71.9396 38.054ZM72.0929 39.6199C72.0941 39.5734 72.1131 39.5292 72.146 39.4963C72.1788 39.4635 72.2231 39.4445 72.2695 39.4433H72.5111C72.5569 39.4466 72.5999 39.4662 72.6324 39.4986C72.6648 39.5311 72.6845 39.5741 72.6877 39.6199V42.9747C72.6854 43.0208 72.6661 43.0644 72.6335 43.097C72.6008 43.1296 72.5572 43.149 72.5111 43.1512H72.2509C72.2045 43.15 72.1602 43.1311 72.1274 43.0982C72.0945 43.0653 72.0755 43.0211 72.0744 42.9747L72.0929 39.6199Z" fill="#727373"/>
<path d="M73.6448 42.9096L74.8668 41.2462L73.6448 39.6849C73.6214 39.6647 73.6054 39.6372 73.5993 39.6068C73.5933 39.5764 73.5975 39.5449 73.6113 39.5172C73.6252 39.4895 73.6479 39.4672 73.6758 39.4538C73.7037 39.4404 73.7353 39.4367 73.7656 39.4433H74.1141C74.1418 39.4435 74.1691 39.4498 74.194 39.4619C74.2189 39.4739 74.2408 39.4914 74.2581 39.513L75.1874 40.8001L76.1539 39.513C76.171 39.4911 76.1928 39.4735 76.2178 39.4614C76.2428 39.4493 76.2702 39.4431 76.2979 39.4433H76.6418C76.7951 39.4433 76.8509 39.5641 76.7626 39.6849L75.5917 41.2462L76.7997 42.9096C76.888 43.0304 76.8276 43.1512 76.6836 43.1512H76.3769C76.3484 43.1482 76.3208 43.1391 76.296 43.1247C76.2712 43.1103 76.2497 43.0908 76.2329 43.0676L75.2199 41.6736L74.2163 43.0676C74.1992 43.0898 74.1775 43.108 74.1526 43.1208C74.1277 43.1337 74.1003 43.1409 74.0723 43.1419H73.7656C73.5937 43.1512 73.5426 43.0211 73.6448 42.9096Z" fill="#727373"/>
<path d="M29.2942 31.1029C29.3022 32.574 29.0064 34.0308 28.4253 35.3823C27.8637 36.6877 27.0578 37.8737 26.0509 38.8765C25.0375 39.8801 23.8443 40.684 22.5335 41.2462C21.1778 41.8291 19.716 42.125 18.2402 42.1151L15.4523 42.0732V36.5532L18.1798 36.595C18.9263 36.6131 19.6702 36.4999 20.3776 36.2605C20.9471 36.0564 21.47 35.7404 21.9156 35.3312C22.3255 34.9552 22.6639 34.5081 22.9146 34.0116C23.1627 33.5068 23.3619 32.9793 23.5093 32.4364C23.2811 32.7991 22.9603 33.0942 22.58 33.2914C22.1539 33.5229 21.7036 33.7068 21.2372 33.8397C20.7354 33.9808 20.2224 34.0788 19.7038 34.1324C19.1695 34.1835 18.677 34.2114 18.217 34.2114C16.7507 34.2221 15.2956 33.9557 13.9283 33.4261C12.6025 32.9142 11.3973 32.133 10.3888 31.1317C9.38033 30.1304 8.59044 28.9308 8.06906 27.6088C7.47137 26.085 7.17624 24.4595 7.20017 22.8229C7.18752 21.2657 7.48281 19.7213 8.06906 18.2786C8.62147 16.9249 9.43093 15.6909 10.4527 14.6451C11.4551 13.6222 12.6486 12.806 13.9654 12.2429C15.3195 11.6597 16.7799 11.3639 18.2541 11.374C18.9561 11.3749 19.6552 11.4623 20.3358 11.6342C21.0243 11.8105 21.6936 12.0549 22.3337 12.3637C22.9833 12.6721 23.6051 13.0359 24.1923 13.4509C24.7709 13.8635 25.3205 14.3152 25.8372 14.8031L27.9792 12.2429H29.3128L29.2942 31.1029ZM23.7184 22.8229C23.7188 22.0706 23.572 21.3256 23.2863 20.6297C23.0056 19.9454 22.606 19.3162 22.1061 18.7712C21.6102 18.2297 21.0177 17.7853 20.359 17.4608C19.6965 17.1312 18.9662 16.961 18.2263 16.9637C17.4992 16.9596 16.7776 17.0904 16.0982 17.3493C15.4515 17.5995 14.8655 17.9844 14.379 18.4784C13.8664 19.0102 13.4708 19.6433 13.2174 20.337C12.9216 21.1323 12.7721 21.9744 12.7759 22.8229C12.7782 23.6548 12.9358 24.4789 13.2406 25.253C13.501 25.9433 13.8959 26.575 14.4022 27.1116C14.893 27.6217 15.4849 28.0237 16.14 28.2918C16.8145 28.5709 17.5382 28.7115 18.2681 28.7053C19.0077 28.7096 19.738 28.541 20.4008 28.2128C21.0607 27.8883 21.6534 27.4422 22.1479 26.8978C22.6479 26.3528 23.0474 25.7236 23.3281 25.0392C23.6094 24.3347 23.7484 23.5814 23.737 22.8229H23.7184Z" fill="#082F41"/>
<path d="M39.0472 33.8118H33.4714V3.60969H39.0472V33.8118Z" fill="#082F41"/>
<path d="M51.8483 28.538C52.0589 28.6018 52.2752 28.6454 52.4941 28.6681C52.7079 28.6681 52.9216 28.696 53.14 28.696C53.665 28.6971 54.1875 28.6235 54.6919 28.4776C55.1834 28.3299 55.6523 28.1157 56.0858 27.841C56.5285 27.5691 56.9279 27.2324 57.2707 26.8421C57.6127 26.4456 57.8945 26.0009 58.1071 25.5224L62.1449 29.5788C61.6378 30.3014 61.0449 30.9598 60.3792 31.5396C59.7176 32.1115 58.9926 32.6057 58.2186 33.0126C57.4444 33.4198 56.6237 33.7318 55.7745 33.9419C53.4664 34.4948 51.0427 34.3079 48.8466 33.4075C47.5194 32.8482 46.317 32.03 45.3094 31.0009C44.3018 29.9718 43.5093 28.7523 42.9781 27.4136C42.3854 25.9566 42.0899 24.3957 42.1092 22.8228C42.0883 21.2197 42.3836 19.6282 42.9781 18.1392C43.5037 16.8016 44.2964 15.5852 45.3078 14.5643C46.3192 13.5433 47.528 12.7392 48.8606 12.201C50.2231 11.6447 51.6822 11.3636 53.1539 11.3739C54.045 11.3726 54.9329 11.4802 55.7978 11.6945C57.5098 12.1189 59.0952 12.9474 60.421 14.1107C61.0914 14.6916 61.6889 15.3516 62.2006 16.0762L51.8483 28.538ZM54.6733 17.1681C54.429 17.0776 54.1747 17.0167 53.9159 16.9869C53.6583 16.9584 53.3992 16.9445 53.14 16.9451C52.4088 16.9417 51.6842 17.0822 51.0072 17.3586C50.3538 17.6273 49.7635 18.0292 49.2741 18.5388C48.7685 19.076 48.3738 19.7075 48.1125 20.3974C47.8197 21.1752 47.6762 22.0012 47.6897 22.8321C47.6897 23.0319 47.6897 23.2643 47.7175 23.5152C47.7382 23.777 47.7723 24.0375 47.8198 24.2958C47.864 24.551 47.9214 24.8038 47.9917 25.0532C48.0511 25.2785 48.1385 25.4954 48.2519 25.699L54.6733 17.1681Z" fill="#082F41"/>
<path d="M85.7258 33.8117H84.3923L82.2502 30.8426C81.7333 31.3221 81.187 31.769 80.6147 32.1808C80.0271 32.59 79.4053 32.9476 78.7561 33.2495C78.1165 33.5498 77.4509 33.7908 76.7674 33.9697C76.0916 34.1419 75.3971 34.2293 74.6997 34.2299C73.229 34.242 71.7687 33.9821 70.3924 33.4633C69.081 32.9685 67.8853 32.2094 66.8797 31.233C65.848 30.2149 65.0395 28.9933 64.5053 27.6459C63.9064 26.1097 63.6129 24.4714 63.6411 22.8228C63.6219 21.2323 63.9156 19.6536 64.5053 18.1764C65.0522 16.8247 65.8589 15.5933 66.8797 14.5521C67.8839 13.5465 69.078 12.7505 70.3924 12.2103C71.7535 11.6482 73.2132 11.3638 74.6858 11.3739C75.3862 11.3748 76.0838 11.4622 76.7627 11.6341C77.4493 11.8118 78.117 12.0562 78.7561 12.3636C79.4058 12.6718 80.0276 13.0356 80.6147 13.4509C81.1933 13.8634 81.7428 14.3152 82.2595 14.803L84.4015 12.2428H85.7258V33.8117ZM80.1779 22.8228C80.179 22.0701 80.0305 21.3246 79.7411 20.6297C79.4605 19.9454 79.0609 19.3162 78.5609 18.7711C78.066 18.2285 77.4733 17.784 76.8139 17.4608C76.153 17.1312 75.4242 16.961 74.6858 16.9636C73.9572 16.9596 73.2341 17.0904 72.553 17.3493C71.9005 17.596 71.3092 17.9812 70.8199 18.4784C70.3058 19.0089 69.9099 19.6424 69.6583 20.337C69.0884 21.9644 69.0884 23.7371 69.6583 25.3645C69.9093 26.0594 70.3053 26.6929 70.8199 27.223C71.3078 27.723 71.8994 28.11 72.553 28.3568C73.2344 28.6142 73.9574 28.7434 74.6858 28.7378C75.4239 28.7421 76.1527 28.5734 76.8139 28.2453C77.4744 27.9219 78.0674 27.4756 78.5609 26.9303C79.0609 26.3853 79.4605 25.756 79.7411 25.0717C80.0385 24.3597 80.1871 23.5944 80.1779 22.8228Z" fill="#082F41"/>
<path d="M117.433 33.8118H111.941V20.0954C111.942 19.7285 111.869 19.3652 111.727 19.0267C111.591 18.694 111.388 18.3922 111.133 18.1392C110.877 17.8797 110.571 17.6743 110.235 17.5354C109.898 17.3965 109.536 17.3269 109.172 17.3307C108.808 17.3282 108.448 17.3993 108.113 17.5398C107.787 17.6814 107.492 17.885 107.244 18.1392C106.995 18.3963 106.797 18.6972 106.658 19.0267C106.518 19.3654 106.447 19.7288 106.449 20.0954V33.8118H100.934V20.0954C100.936 19.7316 100.866 19.371 100.728 19.0345C100.59 18.6979 100.387 18.3922 100.129 18.1349C99.8722 17.8777 99.5665 17.6742 99.2299 17.5361C98.8934 17.3981 98.5328 17.3282 98.169 17.3307C97.8094 17.3265 97.4528 17.396 97.1211 17.5351C96.7894 17.6741 96.4898 17.8797 96.2408 18.1392C95.9894 18.3938 95.7905 18.6954 95.6553 19.0267C95.5115 19.3645 95.4388 19.7282 95.4416 20.0954V33.8118H89.9308V12.201H91.2644L92.7559 13.8551C93.5119 13.2157 94.3693 12.7068 95.2929 12.3497C96.2103 11.9953 97.1855 11.8141 98.169 11.8153C99.181 11.8168 100.184 12.0091 101.124 12.3822C102.132 12.7929 103.01 13.4708 103.661 14.343C103.985 13.896 104.373 13.4997 104.814 13.1675C105.232 12.8506 105.687 12.5869 106.17 12.3822C106.648 12.1884 107.147 12.0512 107.657 11.9733C108.157 11.8853 108.664 11.8402 109.172 11.8386C110.278 11.8322 111.374 12.052 112.392 12.4844C114.375 13.3241 115.952 14.9045 116.787 16.8893C117.219 17.9109 117.439 19.0095 117.433 20.1186V33.8118Z" fill="#082F41"/>
<path d="M127.247 33.8118H121.852V6.86223H127.247V17.6513H138.026V6.86223H143.426V33.8118H138.026V23.0506H127.247V33.8118Z" fill="#218AC4"/>
<path d="M153.824 33.8117H148.425V6.86218H159.224C160.189 6.85741 161.151 6.98721 162.081 7.24784C162.98 7.4964 163.842 7.86195 164.646 8.33512C165.442 8.80648 166.176 9.37629 166.83 10.0311C167.486 10.6845 168.054 11.4201 168.521 12.2196C168.994 13.0288 169.361 13.8955 169.613 14.7984C170.116 16.6213 170.129 18.5447 169.65 20.3741C169.421 21.2447 169.088 22.0841 168.656 22.8739C167.773 24.4753 166.493 25.8226 164.939 26.7863L167.968 33.8117H162.211L159.86 28.3754L153.82 28.4125L153.824 33.8117ZM153.824 12.2382V23.0505H159.224C159.941 23.0535 160.651 22.9096 161.31 22.6277C161.948 22.3534 162.528 21.9608 163.02 21.4707C163.514 20.9766 163.907 20.3911 164.177 19.7469C164.455 19.0848 164.598 18.374 164.598 17.6559C164.598 16.9379 164.455 16.2271 164.177 15.565C163.906 14.9181 163.514 14.3296 163.02 13.8319C162.528 13.3418 161.948 12.9492 161.31 12.6749C160.651 12.393 159.941 12.2491 159.224 12.2521L153.824 12.2382Z" fill="#218AC4"/>
</svg>
