<svg width="428" height="305" viewBox="0 0 428 305" fill="none" xmlns="http://www.w3.org/2000/svg">
<path d="M293.633 92.776C289.296 100.524 279.798 101.588 264.582 100.116C253.138 99.0067 242.703 98.1481 231.258 91.9017C223.247 87.5331 216.907 81.6222 212.279 75.8811C207.264 69.6616 200.264 62.5637 203.695 55.5121C208.411 45.8253 235.682 37.6666 262.163 51.0083C291.253 65.6686 297.876 85.2034 293.633 92.776Z" fill="url(#paint0_linear_786_1841)"/>
<path d="M369.488 156.274C353.383 164.272 332.007 153.988 332.007 153.988C332.007 153.988 336.758 130.743 352.871 122.756C368.977 114.759 390.344 125.031 390.344 125.031C390.344 125.031 385.593 148.276 369.488 156.274Z" fill="url(#paint1_linear_786_1841)"/>
<path d="M81.0819 100.638C89.1884 105.501 100.819 101.005 100.819 101.005C100.819 101.005 99.2977 88.6258 91.1861 83.7677C83.0801 78.904 71.4546 83.3946 71.4546 83.3946C71.4546 83.3946 72.9754 95.774 81.0819 100.638Z" fill="url(#paint2_linear_786_1841)"/>
<path d="M341.67 181.528C337.448 181.528 334.025 184.954 334.025 189.181C334.025 193.408 337.448 196.835 341.67 196.835C345.893 196.835 349.316 193.408 349.316 189.181C349.316 184.954 345.893 181.528 341.67 181.528Z" fill="#218AC4"/>
<path d="M87.0271 123.702C83.5513 123.702 80.7335 126.523 80.7335 130.002C80.7335 133.482 83.5513 136.302 87.0271 136.302C90.503 136.302 93.3208 133.482 93.3208 130.002C93.3208 126.523 90.503 123.702 87.0271 123.702Z" fill="#218AC4"/>
<path d="M118.365 243.616C114.407 243.616 111.198 240.404 111.198 236.441C111.198 232.478 114.407 229.266 118.365 229.266C122.324 229.266 125.533 232.478 125.533 236.441C125.533 240.404 122.324 243.616 118.365 243.616Z" fill="#218AC4"/>
<path d="M302.015 153.858C300.167 153.858 298.67 152.359 298.67 150.509C298.67 148.66 300.167 147.161 302.015 147.161C303.862 147.161 305.359 148.66 305.359 150.509C305.359 152.359 303.862 153.858 302.015 153.858Z" fill="#218AC4"/>
<path d="M105.266 67.2144C102.891 67.2144 100.965 65.287 100.965 62.9093C100.965 60.5317 102.891 58.6042 105.266 58.6042C107.641 58.6042 109.566 60.5317 109.566 62.9093C109.566 65.287 107.641 67.2144 105.266 67.2144Z" fill="#E1E4E5"/>
<path d="M67.0264 177.192C63.5956 177.192 60.8145 174.408 60.8145 170.973C60.8145 167.539 63.5956 164.755 67.0264 164.755C70.4571 164.755 73.2383 167.539 73.2383 170.973C73.2383 174.408 70.4571 177.192 67.0264 177.192Z" fill="#E1E4E5"/>
<path d="M241.596 251.432C238.985 251.432 236.868 249.313 236.868 246.699C236.868 244.086 238.985 241.967 241.596 241.967C244.207 241.967 246.323 244.086 246.323 246.699C246.323 249.313 244.207 251.432 241.596 251.432Z" fill="#E1E4E5"/>
<path d="M321.336 117.773C317.034 117.773 313.546 114.281 313.546 109.974C313.546 105.667 317.034 102.175 321.336 102.175C325.639 102.175 329.127 105.667 329.127 109.974C329.127 114.281 325.639 117.773 321.336 117.773Z" fill="#E1E4E5"/>
<path d="M46.3214 122.512C46.9961 125.032 45.5018 127.623 42.9839 128.299C40.4659 128.974 37.8778 127.478 37.2031 124.958C36.5284 122.437 38.0227 119.846 40.5406 119.171C43.0586 118.495 45.6467 119.991 46.3214 122.512Z" fill="#E1E4E5"/>
<path d="M140.873 73.868C137.406 73.868 134.594 71.0538 134.594 67.5824C134.594 64.111 137.406 61.2969 140.873 61.2969C144.341 61.2969 147.152 64.111 147.152 67.5824C147.152 71.0538 144.341 73.868 140.873 73.868Z" fill="#E1E4E5"/>
<path d="M373.772 222.995C371.105 222.995 368.942 221.263 368.942 219.127C368.942 216.991 371.105 215.259 373.772 215.259C376.44 215.259 378.603 216.991 378.603 219.127C378.603 221.263 376.44 222.995 373.772 222.995Z" fill="#E1E4E5"/>
<path d="M204.561 251.465C205.965 256.711 202.855 262.103 197.615 263.509C192.374 264.915 186.988 261.801 185.583 256.556C184.179 251.31 187.289 245.917 192.53 244.512C197.77 243.106 203.157 246.219 204.561 251.465Z" fill="#E1E4E5"/>
<path d="M125.1 160.65H125.226C125.975 171.262 133.859 171.426 133.859 171.426C133.859 171.426 125.165 171.596 125.165 183.859C125.165 171.596 116.471 171.426 116.471 171.426C116.471 171.426 124.352 171.262 125.1 160.65ZM99.3057 196.424H99.3718C99.7628 202.186 103.885 202.275 103.885 202.275C103.885 202.275 99.3398 202.367 99.3398 209.025C99.3398 202.367 94.7939 202.275 94.7939 202.275C94.7939 202.275 98.9147 202.186 99.3057 196.424Z" fill="#E1E4E5"/>
<path fill-rule="evenodd" clip-rule="evenodd" d="M211.641 85.6541C198.361 85.6541 187.594 96.4324 187.594 109.726V132.164C187.594 135.392 184.98 138.009 181.755 138.009C178.53 138.009 175.915 135.392 175.915 132.164V109.726C175.915 89.9753 191.911 73.9624 211.641 73.9624C231.37 73.9624 247.366 89.9753 247.366 109.726V132.164C247.366 135.392 244.752 138.009 241.527 138.009C238.302 138.009 235.687 135.392 235.687 132.164V109.726C235.687 96.4324 224.92 85.6541 211.641 85.6541Z" fill="#218AC4"/>
<path fill-rule="evenodd" clip-rule="evenodd" d="M255.857 223.675H167.423C157.651 223.675 149.737 215.752 149.737 205.97V144.001C149.737 134.219 157.651 126.295 167.423 126.295H255.857C265.629 126.295 273.544 134.219 273.544 144.001V205.97C273.544 215.752 265.629 223.675 255.857 223.675Z" fill="#218AC4"/>
<path fill-rule="evenodd" clip-rule="evenodd" d="M167.424 130.649C160.054 130.649 154.086 136.623 154.086 144.001V205.97C154.086 213.348 160.054 219.322 167.424 219.322H255.857C263.227 219.322 269.195 213.347 269.195 205.97V144.001C269.195 136.624 263.227 130.649 255.857 130.649H167.424ZM145.388 144.001C145.388 131.814 155.249 121.942 167.424 121.942H255.857C268.031 121.942 277.894 131.814 277.894 144.001V205.97C277.894 218.157 268.031 228.029 255.857 228.029H167.424C155.249 228.029 145.388 218.156 145.388 205.97V144.001Z" fill="#218AC4"/>
<path fill-rule="evenodd" clip-rule="evenodd" d="M195.462 167.36C195.418 158.689 202.445 151.712 211.035 151.712C219.651 151.712 226.66 158.681 226.66 167.327C226.66 172.561 224.085 177.195 220.135 180.029V196.226C220.135 201.243 216.072 205.311 211.06 205.311C206.048 205.311 201.985 201.243 201.985 196.226V180.027C198.044 177.2 195.473 172.579 195.462 167.36Z" fill="white"/>
<path d="M141.121 64.6721H53.6792C43.2327 64.6721 34.7642 73.1495 34.7642 83.6068C34.7642 94.0641 43.2327 102.541 53.6792 102.541H141.121C151.568 102.541 160.036 94.0641 160.036 83.6068C160.036 73.1495 151.568 64.6721 141.121 64.6721Z" fill="url(#paint3_linear_786_1841)"/>
<path d="M153.524 50.3936H66.0825C55.636 50.3936 47.1675 58.8709 47.1675 69.3282C47.1675 79.7855 55.636 88.2629 66.0825 88.2629H153.524C163.971 88.2629 172.439 79.7855 172.439 69.3282C172.439 58.8709 163.971 50.3936 153.524 50.3936Z" fill="#8BAEC2"/>
<path d="M69.6845 74.6554H72.4687L72.1996 70.6457L75.5536 72.8941L76.9404 70.4485L73.3386 68.6871L76.9404 66.9257L75.5536 64.4801L72.1996 66.729L72.4687 62.7188H69.6845L69.9434 66.729L66.5899 64.4801L65.2026 66.9257L68.8151 68.6871L65.2026 70.4485L66.5899 72.8941L69.9434 70.6457L69.6845 74.6554ZM89.0519 74.6554H91.8362L91.567 70.6457L94.9205 72.8941L96.3073 70.4485L92.7055 68.6871L96.3073 66.9257L94.9205 64.4801L91.567 66.729L91.8362 62.7188H89.0519L89.3104 66.729L85.9569 64.4801L84.5701 66.9257L88.1821 68.6871L84.5701 70.4485L85.9569 72.8941L89.3104 70.6457L89.0519 74.6554ZM108.419 74.6554H111.203L110.934 70.6457L114.287 72.8941L115.675 70.4485L112.072 68.6871L115.675 66.9257L114.287 64.4801L110.934 66.729L111.203 62.7188H108.419L108.677 66.729L105.324 64.4801L103.937 66.9257L107.55 68.6871L103.937 70.4485L105.324 72.8941L108.677 70.6457L108.419 74.6554ZM127.786 74.6554H130.57L130.301 70.6457L133.655 72.8941L135.042 70.4485L131.439 68.6871L135.042 66.9257L133.655 64.4801L130.301 66.729L130.57 62.7188H127.786L128.045 66.729L124.691 64.4801L123.304 66.9257L126.916 68.6871L123.304 70.4485L124.691 72.8941L128.045 70.6457L127.786 74.6554ZM147.153 74.6554H149.937L149.668 70.6457L153.022 72.8941L154.409 70.4485L150.807 68.6871L154.409 66.9257L153.022 64.4801L149.668 66.729L149.937 62.7188H147.153L147.412 66.729L144.058 64.4801L142.671 66.9257L146.283 68.6871L142.671 70.4485L144.058 72.8941L147.412 70.6457L147.153 74.6554Z" fill="white"/>
<path fill-rule="evenodd" clip-rule="evenodd" d="M324.761 216.555C324.761 237.839 308.756 257.74 287.246 262.572C265.735 257.74 249.729 237.839 249.729 216.555V199.836C249.73 197.974 250.285 196.154 251.323 194.609C252.361 193.064 253.836 191.863 255.559 191.16L279.006 181.571C284.287 179.41 290.204 179.41 295.485 181.571L318.932 191.16C320.655 191.863 322.129 193.064 323.167 194.609C324.205 196.154 324.76 197.974 324.761 199.836V216.555Z" fill="#8BAEC2"/>
<path fill-rule="evenodd" clip-rule="evenodd" d="M304.715 209.425C305.959 210.67 305.959 212.689 304.715 213.935L287.158 231.51C286.56 232.108 285.75 232.444 284.905 232.444C284.06 232.444 283.25 232.108 282.652 231.51L272.118 220.965C270.874 219.72 270.874 217.7 272.118 216.455C273.362 215.21 275.379 215.21 276.623 216.455L284.905 224.745L300.21 209.425C301.454 208.179 303.471 208.179 304.715 209.425Z" fill="white"/>
<defs>
<linearGradient id="paint0_linear_786_1841" x1="264.418" y1="142.99" x2="225.686" y2="-30.872" gradientUnits="userSpaceOnUse">
<stop stop-color="white"/>
<stop offset="1" stop-color="#EEEEEE"/>
</linearGradient>
<linearGradient id="paint1_linear_786_1841" x1="307.642" y1="181.22" x2="440.587" y2="76.1711" gradientUnits="userSpaceOnUse">
<stop stop-color="white"/>
<stop offset="1" stop-color="#EEEEEE"/>
</linearGradient>
<linearGradient id="paint2_linear_786_1841" x1="112.452" y1="116.294" x2="47.1604" y2="55.6934" gradientUnits="userSpaceOnUse">
<stop stop-color="white"/>
<stop offset="1" stop-color="#EEEEEE"/>
</linearGradient>
<linearGradient id="paint3_linear_786_1841" x1="100.071" y1="123.773" x2="99.718" y2="23.4646" gradientUnits="userSpaceOnUse">
<stop stop-color="white"/>
<stop offset="1" stop-color="#EEEEEE"/>
</linearGradient>
</defs>
</svg>
