<svg width="263" height="65" viewBox="0 0 263 65" fill="none" xmlns="http://www.w3.org/2000/svg">
<path d="M13.7588 6.87941C13.7588 8.24003 13.3554 9.5701 12.5994 10.7014C11.8435 11.8327 10.7691 12.7145 9.51205 13.2352C8.255 13.7558 6.87178 13.8921 5.53731 13.6266C4.20283 13.3612 2.97704 12.706 2.01494 11.7439C1.05283 10.7818 0.397633 9.55599 0.132189 8.22152C-0.133255 6.88704 0.00298084 5.50382 0.523667 4.24678C1.04435 2.98973 1.92611 1.91531 3.05742 1.15939C4.18873 0.403471 5.5188 0 6.87942 0C7.78283 0 8.6774 0.177941 9.51205 0.523664C10.3467 0.869387 11.1051 1.37612 11.7439 2.01493C12.3827 2.65375 12.8894 3.41213 13.2352 4.24678C13.5809 5.08142 13.7588 5.976 13.7588 6.87941Z" fill="white"/>
<path d="M45.2216 48.0127C45.2362 50.2841 44.7794 52.5337 43.8801 54.6195C43.0131 56.6348 41.7689 58.4658 40.2145 60.014C38.6525 61.5596 36.8124 62.796 34.7913 63.6582C32.7004 64.5572 30.4461 65.0139 28.1701 64.9996L23.866 64.9351V56.4344L28.0769 56.499C29.2437 56.5305 30.4069 56.3556 31.513 55.9825C33.218 55.393 34.6224 54.1561 35.4225 52.5392C35.8101 51.7617 36.1177 50.947 36.3408 50.1074C35.9879 50.6685 35.4929 51.1264 34.906 51.4345C34.2484 51.7906 33.553 52.0721 32.8329 52.2738C32.0589 52.4947 31.2666 52.646 30.4656 52.7257C29.6431 52.807 28.8803 52.8477 28.1773 52.8477C25.9107 52.8623 23.6618 52.4486 21.5489 51.6282C19.4895 50.8437 17.6166 49.6376 16.0502 48.0873C14.4839 46.537 13.2586 44.6767 12.4529 42.6254C11.528 40.2736 11.0723 37.7635 11.1115 35.2367C11.09 32.8324 11.546 30.4477 12.4529 28.2209C13.2979 26.1238 14.5429 24.2112 16.1186 22.5897C17.6663 21.0106 19.5088 19.7506 21.5418 18.881C23.6348 17.9918 25.889 17.5449 28.1629 17.5683C29.2471 17.5698 30.3267 17.7071 31.3767 17.9771C32.4392 18.2478 33.4724 18.6227 34.4613 19.0962C35.4646 19.5744 36.4246 20.1384 37.3307 20.782C38.2243 21.4184 39.0729 22.1159 39.8701 22.8695L43.1771 18.9097H45.2359L45.2216 48.0127ZM36.6133 35.2295C36.6154 34.068 36.3887 32.9175 35.9462 31.8436C35.512 30.7876 34.8952 29.8163 34.1241 28.9742C33.373 28.1194 32.4678 27.4137 31.4556 26.8938C30.4288 26.4018 29.3013 26.1562 28.1629 26.1765C27.038 26.1698 25.9216 26.3717 24.8703 26.7719C23.8622 27.1487 22.9471 27.7384 22.1874 28.5007C21.3968 29.3222 20.786 30.2995 20.394 31.3701C19.9397 32.6126 19.7184 33.9282 19.7412 35.251C19.7208 36.5339 19.9423 37.8091 20.394 39.0099C20.7961 40.0756 21.4056 41.0509 22.1874 41.8793C22.9447 42.6674 23.8586 43.288 24.8703 43.7014C25.9146 44.1306 27.0339 44.3476 28.1629 44.3399C29.3024 44.3457 30.4274 44.0853 31.4484 43.5795C32.4666 43.0776 33.3816 42.3889 34.1457 41.5494C34.9167 40.7072 35.5335 39.7359 35.9677 38.6799C36.4104 37.6061 36.6371 36.4556 36.6349 35.294" fill="white"/>
<path d="M60.2719 5.55273H51.6996V52.2237H60.2719V5.55273Z" fill="white"/>
<path d="M80.0421 44.0602C80.3666 44.1615 80.7008 44.2288 81.0392 44.2611C81.3692 44.2946 81.7016 44.3089 82.0363 44.3041C82.8498 44.3066 83.6594 44.1906 84.4395 43.9598C85.1984 43.7321 85.9225 43.4015 86.5915 42.977C87.268 42.5507 87.8772 42.026 88.3993 41.4204C88.9285 40.8066 89.3637 40.1176 89.6905 39.3759L95.9243 45.6456C95.1417 46.7615 94.2264 47.778 93.1983 48.6728C92.1795 49.559 91.0599 50.3223 89.8627 50.9468C88.6676 51.5759 87.4005 52.0577 86.0894 52.3815C84.7577 52.704 83.3921 52.8654 82.022 52.8622C79.7848 52.877 77.567 52.4463 75.4979 51.5953C73.4288 50.7442 71.5498 49.4899 69.9705 47.9053C68.3955 46.308 67.1499 44.4165 66.3048 42.3386C65.3911 40.0862 64.9351 37.6744 64.9633 35.244C64.933 32.7691 65.3887 30.3123 66.3048 28.0131C67.1181 25.948 68.3434 24.0702 69.906 22.4941C71.4686 20.9179 73.3357 19.6764 75.3936 18.8453C77.5017 17.9846 79.7595 17.5506 82.0363 17.5684C83.4124 17.5679 84.7832 17.7366 86.1181 18.0705C90.1166 19.0695 93.6241 21.4698 96.0032 24.8352L80.0421 44.0602ZM84.4036 26.5066C84.0265 26.3669 83.6339 26.2729 83.2343 26.2268C82.8364 26.1842 82.4365 26.1627 82.0363 26.1623C80.9097 26.1555 79.7929 26.3725 78.7509 26.8007C77.7391 27.2141 76.8252 27.8348 76.068 28.6228C75.2862 29.4512 74.6767 30.4265 74.2746 31.4922C73.8229 32.6931 73.6014 33.9683 73.6218 35.2511C73.6218 35.562 73.6385 35.9159 73.672 36.3128C73.7055 36.7098 73.7581 37.1091 73.8298 37.5108C73.9016 37.9173 73.99 38.3071 74.0952 38.6801C74.1892 39.0283 74.3266 39.3633 74.5041 39.6772L84.4036 26.5066Z" fill="white"/>
<path d="M132.352 52.2237H130.293L126.986 47.6398C126.169 48.3721 125.309 49.0549 124.411 49.6843C123.504 50.3166 122.544 50.8686 121.541 51.3342C120.555 51.7974 119.527 52.1673 118.471 52.4389C117.428 52.7094 116.356 52.8468 115.279 52.8478C113.015 52.8641 110.768 52.4629 108.65 51.6642C106.625 50.9018 104.779 49.7296 103.227 48.2209C101.641 46.6449 100.4 44.7566 99.5831 42.6757C98.6506 40.3081 98.19 37.7811 98.2273 35.2368C98.1977 32.7806 98.6536 30.3428 99.5688 28.0632C100.408 25.9739 101.654 24.072 103.234 22.4679C104.782 20.909 106.626 19.6749 108.658 18.8381C110.765 17.9756 113.024 17.5439 115.3 17.5684C116.384 17.5699 117.464 17.7073 118.514 17.9773C119.577 18.2479 120.61 18.6228 121.599 19.0963C122.602 19.5745 123.562 20.1385 124.468 20.7821C125.362 21.4185 126.21 22.116 127.008 22.8696L130.315 18.9098H132.373L132.352 52.2237ZM123.744 35.2368C123.746 34.0753 123.519 32.9248 123.076 31.8509C122.642 30.7949 122.025 29.8236 121.254 28.9815C120.504 28.1241 119.599 27.4159 118.586 26.894C117.561 26.403 116.436 26.1574 115.3 26.1766C114.175 26.1699 113.059 26.3718 112.008 26.772C110.998 27.153 110.083 27.7476 109.325 28.5152C108.534 29.3367 107.923 30.3139 107.531 31.3846C106.68 33.8833 106.687 36.595 107.553 39.089C107.944 40.1598 108.555 41.1371 109.346 41.9584C110.104 42.7261 111.02 43.3207 112.029 43.7015C113.081 44.0993 114.197 44.2987 115.322 44.2898C116.464 44.2967 117.591 44.0363 118.614 43.5294C119.633 43.0275 120.548 42.3388 121.312 41.4993C122.083 40.6571 122.7 39.6858 123.134 38.6299C123.577 37.556 123.803 36.4055 123.801 35.2439" fill="white"/>
<path d="M181.297 52.2235H172.832V31.0257C172.834 30.4637 172.725 29.9068 172.511 29.3872C172.297 28.8676 171.982 28.3956 171.584 27.9985C171.191 27.6069 170.725 27.2951 170.214 27.0803C169.691 26.8608 169.13 26.7485 168.564 26.7503C168.009 26.7462 167.459 26.8548 166.947 27.0693C166.436 27.2839 165.973 27.5999 165.587 27.9985C165.201 28.3938 164.895 28.8587 164.683 29.3686C164.463 29.8908 164.351 30.452 164.353 31.0185V52.2235H155.824V31.0257C155.826 30.4591 155.713 29.898 155.494 29.3758C155.169 28.5975 154.621 27.9331 153.919 27.4669C153.216 27.0007 152.391 26.7538 151.548 26.7574C150.993 26.7534 150.443 26.8619 149.932 27.0765C149.42 27.291 148.957 27.6071 148.571 28.0056C148.186 28.4011 147.879 28.8661 147.667 29.3758C147.447 29.898 147.335 30.4591 147.337 31.0257V52.2235H138.837V18.8379H140.895L143.198 21.3917C144.363 20.4044 145.684 19.6188 147.108 19.0674C148.524 18.5184 150.03 18.2386 151.548 18.2425C153.113 18.2435 154.663 18.5405 156.118 19.1176C157.671 19.7505 159.023 20.7946 160.027 22.1377C160.528 21.4506 161.127 20.8414 161.806 20.33C162.455 19.8416 163.161 19.4344 163.908 19.1176C164.643 18.8081 165.411 18.5843 166.197 18.4505C166.969 18.3177 167.751 18.2505 168.535 18.2496C170.257 18.23 171.964 18.5671 173.549 19.2396C176.611 20.5293 179.045 22.9684 180.328 26.0329C181.002 27.6207 181.341 29.3299 181.325 31.0544L181.297 52.2235Z" fill="white"/>
<path d="M196.454 52.2234H188.118V10.5811H196.454V27.2523H213.089V10.5811H221.425V52.2234H213.089V35.5808H196.454V52.2234Z" fill="white"/>
<path d="M237.48 52.2237H229.144V10.6173H245.808C247.299 10.6126 248.784 10.8129 250.22 11.2127C251.607 11.6005 252.938 12.1671 254.18 12.8985C257.931 15.1032 260.68 18.6779 261.848 22.8697C262.625 25.684 262.644 28.6534 261.906 31.4779C261.542 32.808 261.019 34.0894 260.349 35.2942C259.678 36.5159 258.854 37.6465 257.896 38.6586C256.93 39.682 255.838 40.5787 254.646 41.3271L259.266 52.2166H250.428L246.798 43.8235L237.472 43.8809L237.48 52.2237ZM237.48 18.917V35.5883H245.815C246.923 35.5954 248.019 35.3731 249.036 34.9355C251.035 34.0825 252.622 32.4846 253.462 30.4808C253.891 29.4585 254.112 28.3611 254.112 27.2527C254.112 26.1442 253.891 25.0469 253.462 24.0246C252.62 22.0257 251.032 20.4332 249.036 19.5842C248.019 19.1468 246.922 18.9245 245.815 18.9314L237.48 18.917Z" fill="white"/>
</svg>
