<svg width="24" height="20" viewBox="0 0 24 20" fill="none" xmlns="http://www.w3.org/2000/svg">
<g id="Group 7371">
<path id="Vector" d="M4.19979 4.70588C4.19979 3.92583 4.51584 3.17773 5.07843 2.62616C5.64101 2.07458 6.40403 1.76471 7.19964 1.76471C7.99525 1.76471 8.75827 2.07458 9.32086 2.62616C9.88344 3.17773 10.1995 3.92583 10.1995 4.70588C10.1995 5.48593 9.88344 6.23403 9.32086 6.78561C8.75827 7.33719 7.99525 7.64706 7.19964 7.64706C6.40403 7.64706 5.64101 7.33719 5.07843 6.78561C4.51584 6.23403 4.19979 5.48593 4.19979 4.70588ZM7.19964 0C5.92666 0 4.70583 0.495797 3.8057 1.37832C2.90557 2.26084 2.39988 3.4578 2.39988 4.70588C2.39988 5.95396 2.90557 7.15092 3.8057 8.03344C4.70583 8.91597 5.92666 9.41177 7.19964 9.41177C8.47262 9.41177 9.69345 8.91597 10.5936 8.03344C11.4937 7.15092 11.9994 5.95396 11.9994 4.70588C11.9994 3.4578 11.4937 2.26084 10.5936 1.37832C9.69345 0.495797 8.47262 0 7.19964 0ZM16.1992 5.88235C16.1992 5.41432 16.3888 4.96546 16.7264 4.63452C17.0639 4.30357 17.5217 4.11765 17.9991 4.11765C18.4765 4.11765 18.9343 4.30357 19.2718 4.63452C19.6094 4.96546 19.799 5.41432 19.799 5.88235C19.799 6.35038 19.6094 6.79924 19.2718 7.13019C18.9343 7.46114 18.4765 7.64706 17.9991 7.64706C17.5217 7.64706 17.0639 7.46114 16.7264 7.13019C16.3888 6.79924 16.1992 6.35038 16.1992 5.88235ZM17.9991 2.35294C17.0444 2.35294 16.1287 2.72479 15.4536 3.38668C14.7785 4.04858 14.3993 4.94629 14.3993 5.88235C14.3993 6.81841 14.7785 7.71613 15.4536 8.37803C16.1287 9.03992 17.0444 9.41177 17.9991 9.41177C18.9538 9.41177 19.8695 9.03992 20.5446 8.37803C21.2197 7.71613 21.5989 6.81841 21.5989 5.88235C21.5989 4.94629 21.2197 4.04858 20.5446 3.38668C19.8695 2.72479 18.9538 2.35294 17.9991 2.35294ZM14.6969 17.6918C15.5404 18.0271 16.6216 18.2353 18.0003 18.2353C20.7386 18.2353 22.3033 17.4153 23.1564 16.4024C23.5704 15.9106 23.7804 15.4141 23.8884 15.0341C23.95 14.8139 23.9874 14.588 24 14.36V14.3282C24 13.9916 23.9324 13.6582 23.801 13.3472C23.6696 13.0362 23.477 12.7536 23.2342 12.5155C22.9914 12.2775 22.7031 12.0887 22.3859 11.9598C22.0687 11.831 21.7287 11.7647 21.3853 11.7647H14.6153C14.5817 11.7647 14.5493 11.7647 14.5169 11.7671C14.9897 12.2494 15.3328 12.8553 15.496 13.5294H21.3853C21.8317 13.5294 22.1941 13.8812 22.2001 14.3165C22.1915 14.4008 22.1755 14.4843 22.1521 14.5659C22.078 14.8275 21.947 15.0703 21.7681 15.2776C21.3481 15.7788 20.3618 16.4706 18.0003 16.4706C16.8244 16.4706 15.9892 16.2988 15.3964 16.0647C15.2668 16.5353 15.0532 17.1035 14.6969 17.6918ZM2.69987 11.7647C1.98382 11.7647 1.2971 12.0436 0.790772 12.54C0.284449 13.0364 0 13.7097 0 14.4118V14.7388C0.00141025 14.8206 0.00701698 14.9023 0.0167991 14.9835C0.11589 15.8589 0.43682 16.6961 0.950353 17.4188C1.9319 18.7929 3.80621 20 7.19964 20C10.5931 20 12.4674 18.7941 13.4489 17.4176C13.9626 16.695 14.2835 15.8578 14.3825 14.9824C14.391 14.9014 14.3966 14.8202 14.3993 14.7388V14.4118C14.3993 13.7097 14.1148 13.0364 13.6085 12.54C13.1022 12.0436 12.4155 11.7647 11.6994 11.7647H2.69987ZM1.79991 14.7141V14.4118C1.79991 14.1778 1.89473 13.9533 2.0635 13.7878C2.23228 13.6224 2.46118 13.5294 2.69987 13.5294H11.6994C11.9381 13.5294 12.167 13.6224 12.3358 13.7878C12.5046 13.9533 12.5994 14.1778 12.5994 14.4118V14.7141L12.591 14.8082C12.5226 15.3824 12.3107 15.9312 11.9742 16.4059C11.3826 17.2353 10.1059 18.2353 7.19964 18.2353C4.29339 18.2353 3.01665 17.2353 2.42388 16.4059C2.08777 15.9311 1.87633 15.3823 1.80831 14.8082C1.80467 14.7769 1.80187 14.7456 1.79991 14.7141Z" fill="#040F1C"/>
</g>
</svg>
