<svg width="14" height="15" viewBox="0 0 14 15" fill="none" xmlns="http://www.w3.org/2000/svg">
<path d="M9.02782 7.36076C9.1593 7.50317 9.25321 7.6049 9.34712 7.70662C10.5742 9.03582 11.8076 10.3582 13.0222 11.701C13.7297 12.4809 13.5294 13.7151 12.6403 14.1763C12.0831 14.4679 11.4695 14.3323 10.9687 13.8033C9.75408 12.4877 8.54574 11.1788 7.33113 9.86318C7.23722 9.76146 7.14957 9.66651 7.01809 9.5241C6.90539 9.64617 6.81148 9.74789 6.72383 9.84284C5.49044 11.1788 4.25706 12.5284 3.01115 13.8508C2.29741 14.6103 1.18298 14.4069 0.744726 13.471C0.462988 12.8674 0.569423 12.1825 1.05151 11.6603C2.26611 10.3311 3.49324 9.01548 4.7141 7.69306C4.80801 7.59133 4.89566 7.49639 5.02714 7.35397C4.91445 7.23191 4.82053 7.13018 4.73288 7.03524C3.4995 5.69926 2.25359 4.36327 1.03273 3.01373C0.337772 2.2474 0.519337 1.03349 1.38333 0.558777C1.94055 0.253604 2.57289 0.368892 3.05498 0.891077C4.2821 2.20671 5.49671 3.53591 6.71757 4.85833C6.81148 4.96006 6.89913 5.055 7.03061 5.19742C7.14331 5.07535 7.23722 4.97362 7.32487 4.87868C8.55826 3.5427 9.79164 2.19315 11.0375 0.870732C11.7575 0.0908441 12.897 0.307857 13.3165 1.27763C13.5857 1.8812 13.4605 2.5458 12.9659 3.08155C11.7513 4.39718 10.5429 5.70604 9.32834 7.02167C9.24695 7.1234 9.15304 7.22512 9.02782 7.36076Z" fill="#808080"/>
</svg>
