<svg width="20" height="20" viewBox="0 0 20 20" fill="none" xmlns="http://www.w3.org/2000/svg">
<path id="Vector" d="M10.0202 19.9967C7.21824 19.9967 4.84754 19.0269 2.90808 17.0874C0.968617 15.1479 -0.000741809 12.7775 4.25919e-07 9.97627C4.25919e-07 7.41549 0.835015 5.19319 2.50504 3.30935C4.17507 1.4255 6.309 0.326225 8.90682 0.0115097C9.14805 -0.025603 9.36144 0.00705623 9.547 0.109487C9.73256 0.211918 9.881 0.346266 9.99234 0.512531C10.1037 0.679538 10.1642 0.87438 10.1738 1.09706C10.1835 1.31973 10.1137 1.53313 9.96451 1.73725C9.64906 2.21972 9.41228 2.73002 9.25419 3.26815C9.09609 3.80628 9.01741 4.37225 9.01816 4.96606C9.01816 6.63613 9.60267 8.05569 10.7717 9.22474C11.9407 10.3938 13.3602 10.9783 15.0303 10.9783C15.6055 10.9783 16.1763 10.8948 16.7426 10.7278C17.3089 10.5608 17.8144 10.3288 18.259 10.0319C18.4631 9.90205 18.672 9.84192 18.8858 9.85157C19.0996 9.86122 19.2896 9.91207 19.4558 10.0041C19.6414 10.0969 19.7854 10.2361 19.8878 10.4216C19.9902 10.6072 20.0225 10.8299 19.9847 11.0897C19.7249 13.6504 18.6346 15.7751 16.7136 17.4638C14.7927 19.1524 12.5616 19.9967 10.0202 19.9967ZM10.0202 17.7699C11.6531 17.7699 13.119 17.3198 14.4179 16.4194C15.7168 15.5191 16.6632 14.3456 17.257 12.8989C16.8858 12.9917 16.5147 13.0659 16.1436 13.1216C15.7725 13.1772 15.4014 13.2051 15.0303 13.2051C12.7479 13.2051 10.804 12.4023 9.19852 10.7968C7.59306 9.19134 6.79071 7.24775 6.79145 4.96606C6.79145 4.59493 6.81928 4.2238 6.87495 3.85267C6.93062 3.48155 7.00484 3.11042 7.09762 2.73929C5.65026 3.3331 4.47642 4.27947 3.57609 5.57842C2.67576 6.87736 2.22596 8.34331 2.22671 9.97627C2.22671 12.1288 2.9875 13.9659 4.50908 15.4875C6.03066 17.0091 7.86769 17.7699 10.0202 17.7699Z" fill="#040F1C"/>
</svg>
