<svg width="16" height="16" viewBox="0 0 16 16" fill="none" xmlns="http://www.w3.org/2000/svg">
<path d="M10.8083 0.487977C11.1209 0.175526 11.5447 0 11.9867 0C12.4286 0 12.8525 0.175526 13.165 0.487977L15.2275 2.55048C15.3823 2.70525 15.5052 2.88901 15.589 3.09127C15.6728 3.29352 15.7159 3.5103 15.7159 3.72923C15.7159 3.94815 15.6728 4.16494 15.589 4.36719C15.5052 4.56944 15.3823 4.7532 15.2275 4.90798L5.31667 14.8188L0 15.7155L0.8975 10.3988L10.8083 0.487977ZM10.6175 3.03548L12.68 5.09798L14.0492 3.72881L11.9867 1.66714L10.6175 3.03548ZM11.5008 6.27714L9.43917 4.21464L2.4525 11.2013L2.03333 13.6821L4.51417 13.2638L11.5017 6.27631L11.5008 6.27714Z" fill="#218AC4"/>
</svg>
