<svg width="20" height="20" viewBox="0 0 20 20" fill="none" xmlns="http://www.w3.org/2000/svg">
<path id="Vector" d="M10 18.9967C14.9705 18.9967 19 14.9672 19 9.9967C19 5.02625 14.9705 0.996704 10 0.996704M10 18.9967C5.02955 18.9967 1 14.9672 1 9.9967C1 5.02625 5.02955 0.996704 10 0.996704M10 18.9967C12.4545 18.9967 13.2727 14.9058 13.2727 9.9967C13.2727 5.08761 12.4545 0.996704 10 0.996704M10 18.9967C7.54545 18.9967 6.72727 14.9058 6.72727 9.9967C6.72727 5.08761 7.54545 0.996704 10 0.996704M1.81818 13.2694H18.1818M1.81818 6.72398H18.1818" stroke="#040F1C" stroke-width="1.5"/>
</svg>
