<svg width="13" height="17" viewBox="0 0 13 17" fill="none" xmlns="http://www.w3.org/2000/svg">
<g id="Group">
<path id="Vector" d="M0.617737 6.63695C0.632216 3.90051 2.57724 1.51933 5.25587 0.976844C8.57158 0.304737 11.7859 2.60911 12.172 5.94084C12.2879 6.9394 12.1334 7.89955 11.8294 8.8501C11.3516 10.3431 10.589 11.6922 9.73956 13.0028C8.89495 14.299 7.96346 15.528 6.9451 16.6945C6.59277 17.1026 6.24045 17.1026 5.88812 16.6897C4.27612 14.8174 2.82338 12.8299 1.72297 10.612C1.22103 9.59902 0.82527 8.54285 0.680479 7.40987C0.651521 7.15063 0.637042 6.89139 0.617737 6.63695ZM6.41902 15.4656C6.47694 15.4031 6.5252 15.3599 6.56381 15.3071C7.21055 14.4622 7.88624 13.6413 8.49436 12.7723C9.42102 11.4425 10.1981 10.0311 10.7097 8.48524C11.0089 7.5779 11.1633 6.66095 10.9606 5.7056C10.2946 2.5755 6.82926 1.02005 4.06376 2.65711C2.41797 3.63647 1.67471 5.13911 1.8195 7.04981C1.89189 7.98116 2.22009 8.8453 2.6062 9.69023C3.46046 11.5769 4.60914 13.2812 5.92191 14.8799C6.07635 15.0815 6.24527 15.2639 6.41902 15.4656Z" fill="#167AED"/>
<path id="Vector_2" d="M6.42389 8.92224C5.15456 8.92224 4.10724 7.88528 4.10724 6.62267C4.10724 5.35527 5.15456 4.30871 6.43355 4.31351C7.70288 4.31831 8.74054 5.36007 8.74054 6.62267C8.73572 7.88528 7.69323 8.92224 6.42389 8.92224ZM7.57739 6.62748C7.57739 5.98418 7.07063 5.47049 6.42389 5.47049C5.77716 5.47049 5.26074 5.98418 5.26557 6.62748C5.26557 7.26118 5.77716 7.77006 6.41424 7.77486C7.06097 7.77486 7.57739 7.27078 7.57739 6.62748Z" fill="#167AED"/>
</g>
</svg>
