<svg width="18" height="12" viewBox="0 0 18 12" fill="none" xmlns="http://www.w3.org/2000/svg">
<path id="Vector" d="M0.924316 1.60791C0.950348 1.5216 0.967703 1.43097 0.998074 1.34466C1.19765 0.749098 1.753 0.347743 2.39512 0.347743C3.41471 0.343428 4.43429 0.347743 5.45387 0.347743C8.9812 0.347743 12.5129 0.347743 16.0402 0.347743C16.7821 0.347743 17.3548 0.762045 17.5327 1.43097C17.5674 1.56907 17.5848 1.72012 17.5848 1.86253C17.5891 4.73675 17.5891 7.61097 17.5848 10.4852C17.5848 11.3742 16.9557 12 16.0575 12C11.5367 12 7.01579 12 2.49491 12C1.67924 12 1.14993 11.5857 0.95035 10.7959C0.946011 10.7743 0.932994 10.7571 0.924316 10.7355C0.924316 7.69297 0.924316 4.65044 0.924316 1.60791ZM2.63375 1.32308C2.68147 1.37487 2.71184 1.40939 2.74221 1.4396C4.76837 3.45932 6.79018 5.47904 8.81633 7.50308C9.09401 7.77928 9.41507 7.77928 9.70142 7.49445C11.7276 5.47473 13.7537 3.45501 15.7755 1.43097C15.8059 1.40076 15.8363 1.36192 15.871 1.31876C11.4542 1.32308 7.05484 1.32308 2.63375 1.32308ZM2.62073 11.0117C7.05918 11.0117 11.4586 11.0117 15.8927 11.0117C14.4826 9.62206 13.0986 8.25832 11.7059 6.88163C11.6755 6.91184 11.6321 6.95068 11.5887 6.99384C11.1809 7.39951 10.7774 7.80518 10.3696 8.20653C9.73179 8.83662 8.78162 8.83662 8.14384 8.20653C7.89654 7.96486 7.65357 7.71886 7.41061 7.47287C7.20669 7.27004 7.00711 7.07152 6.81187 6.87731C5.41483 8.254 4.0308 9.62206 2.62073 11.0117ZM1.90919 10.2651C3.28888 8.90998 4.68593 7.53329 6.06996 6.16955C4.67726 4.79717 3.28455 3.42048 1.90919 2.06537C1.90919 4.78854 1.90919 7.55487 1.90919 10.2651ZM16.5999 2.05674C15.2158 3.42048 13.8231 4.79286 12.4218 6.17386C13.8188 7.55055 15.2158 8.92725 16.5999 10.291C16.5999 7.55487 16.5999 4.79286 16.5999 2.05674Z" fill="#167AED"/>
</svg>
