<svg width="20" height="23" viewBox="0 0 20 23" fill="none" xmlns="http://www.w3.org/2000/svg">
<g id="Group 7372">
<path id="Vector" d="M18 15H10C9.46957 15 8.96086 14.7893 8.58579 14.4142C8.21071 14.0391 8 13.5304 8 13V2C8 1.46957 8.21071 0.960859 8.58579 0.585786C8.96086 0.210714 9.46957 0 10 0H18C18.5304 0 19.0391 0.210714 19.4142 0.585786C19.7893 0.960859 20 1.46957 20 2V13C20 13.5304 19.7893 14.0391 19.4142 14.4142C19.0391 14.7893 18.5304 15 18 15ZM10 13H18V2H10V13Z" fill="#040F1C"/>
<path id="Vector_2" d="M15 19H6C5.46957 19 4.96086 18.7893 4.58579 18.4142C4.21071 18.0391 4 17.5304 4 17V5H6V17H15V19Z" fill="#040F1C"/>
<path id="Vector_3" d="M11 23H2C0.897 23 0 22.103 0 21V9H2V21H11V23Z" fill="#040F1C"/>
</g>
</svg>
