<svg width="17" height="17" viewBox="0 0 17 17" fill="none" xmlns="http://www.w3.org/2000/svg">
<path id="Vector" d="M12.7446 17C11.9219 16.9244 11.2078 16.7355 10.5175 16.4805C8.86243 15.8714 7.39655 14.9459 6.03944 13.8362C4.1338 12.2826 2.54498 10.4552 1.3439 8.31137C0.719725 7.19696 0.25159 6.02589 0.0340734 4.76037C-0.0321275 4.37789 -0.0037557 4.03317 0.209033 3.69791C0.989257 2.45601 1.89243 1.31799 3.02257 0.373575C3.0935 0.312189 3.17389 0.264968 3.25427 0.208303C3.70822 -0.117519 4.08178 -0.0372442 4.531 0.302744C4.61139 0.364131 4.67759 0.439684 4.73906 0.519959C5.47673 1.56826 6.19075 2.63072 6.74873 3.78763C6.86222 4.01901 6.94261 4.26928 7.02299 4.51483C7.12229 4.81704 7.06082 5.10981 6.85276 5.34591C6.64943 5.57729 6.413 5.78506 6.18129 5.99755C6.02998 6.13922 5.87393 6.27615 5.70843 6.39893C5.6044 6.4792 5.58076 6.55476 5.62805 6.68225C6.48866 8.9394 8.0491 10.4977 10.3047 11.3618C10.4371 11.4138 10.5127 11.3902 10.6026 11.2815C10.8626 10.9652 11.1322 10.663 11.4017 10.3607C11.7753 9.9452 12.2245 9.81298 12.7446 10.0538C13.2884 10.3088 13.8369 10.5591 14.3524 10.866C15.0522 11.2815 15.7237 11.7443 16.4046 12.1929C16.693 12.3818 16.8822 12.6415 16.972 12.9768C17.0288 13.1751 17.0099 13.364 16.9058 13.5387C16.7923 13.7229 16.6789 13.9165 16.537 14.077C15.5629 15.1772 14.4375 16.098 13.1655 16.8347C13.0142 16.9197 12.8392 16.9622 12.7446 17ZM3.81225 1.16216C3.76496 1.19994 3.74605 1.2141 3.72714 1.23299C2.80032 2.07352 1.99646 3.02265 1.28716 4.05206C1.15003 4.25511 1.11693 4.44399 1.16422 4.67538C1.36282 5.70479 1.73165 6.67281 2.23762 7.58417C3.84062 10.4835 6.08672 12.7737 8.93336 14.4784C10.0446 15.1442 11.222 15.6447 12.5177 15.8336C12.6075 15.8478 12.7163 15.8194 12.7919 15.7722C13.7707 15.1442 14.6597 14.4075 15.4683 13.5717C15.5913 13.449 15.7048 13.3168 15.8277 13.1845C15.771 13.1373 15.7379 13.1043 15.7 13.0759C14.6597 12.3157 13.5532 11.664 12.3853 11.1115C12.3001 11.069 12.2481 11.0832 12.1914 11.154C12.0259 11.3524 11.8651 11.5554 11.6854 11.749C11.4253 12.0229 11.1605 12.2921 10.8863 12.5518C10.8295 12.6037 10.7113 12.6273 10.6309 12.6132C9.72304 12.4432 8.90972 12.0465 8.13895 11.546C6.36571 10.3985 5.12208 8.83079 4.47899 6.81447C4.26147 6.12977 4.22364 6.27143 4.75325 5.7284C5.07007 5.4073 5.42944 5.12397 5.77463 4.82648C5.87393 4.74148 5.90231 4.67065 5.83138 4.54788C5.36797 3.73569 4.91875 2.90932 4.44589 2.10185C4.27093 1.78075 4.0345 1.48326 3.81225 1.16216Z" fill="#167AED"/>
</svg>
