<svg width="23" height="24" viewBox="0 0 23 24" fill="none" xmlns="http://www.w3.org/2000/svg">
<path d="M19.8935 20.7101C19.8935 21.3194 19.8997 21.897 19.8935 22.4746C19.8812 23.2362 19.4183 23.782 18.7025 23.8709C18.2706 23.9217 17.9065 23.7503 17.5979 23.4393C16.771 22.5888 15.9318 21.7383 15.111 20.8815C14.9814 20.7418 14.8519 20.6974 14.6667 20.6974C13.4017 20.7038 12.1366 20.7038 10.8716 20.6974C9.42144 20.6911 8.25513 19.6692 8.00212 18.2031C7.97127 18.0063 7.97127 17.8095 7.97127 17.6128C7.97127 15.988 7.97127 14.3632 7.97127 12.732C7.97127 12.6431 7.97127 12.5606 7.97127 12.4083C7.8787 12.4908 7.81699 12.5416 7.76763 12.5987C6.96541 13.4175 6.16318 14.2489 5.35479 15.0613C4.62045 15.7976 3.42946 15.4675 3.15794 14.4647C3.10857 14.287 3.10857 14.0902 3.1024 13.8998C3.09623 13.3667 3.1024 12.8399 3.1024 12.3194C2.78151 12.275 2.48531 12.2623 2.19527 12.1925C0.936404 11.8815 0.029277 10.7327 0.023106 9.39984C-0.0015777 7.22283 -0.00774864 5.05852 0.0107642 2.89421C0.023106 1.2567 1.31283 0.00634695 2.96047 0C5.9904 0 9.02033 0 12.0564 0C12.2045 0 12.3465 0.0126939 12.4946 0.0317348C13.9015 0.196756 15 1.41537 15.0185 2.88152C15.037 4.62693 15.0246 6.37234 15.0246 8.11775C15.0246 8.21296 15.0246 8.30181 15.0246 8.42241C15.1419 8.42241 15.2345 8.42241 15.3208 8.42241C16.9006 8.42241 18.4804 8.41606 20.0663 8.42241C21.535 8.42875 22.7013 9.43792 22.9543 10.9231C22.9851 11.1072 22.9851 11.3039 22.9851 11.4943C22.9851 13.5317 22.9605 15.5754 22.9975 17.6128C23.0283 19.263 21.7756 20.7101 20.0663 20.7038C20.0108 20.6974 19.9676 20.7038 19.8935 20.7101ZM7.52079 1.14245C6.00274 1.14245 4.48469 1.1361 2.96664 1.14245C1.92375 1.1488 1.1277 1.8787 1.12153 2.89421C1.10919 5.06487 1.10919 7.22918 1.12153 9.39349C1.1277 10.2249 1.71394 10.9358 2.51616 11.0881C2.83088 11.1452 3.15794 11.1326 3.485 11.1326C4.0157 11.1389 4.20083 11.323 4.207 11.8815C4.207 12.5543 4.207 13.227 4.207 13.9062C4.207 14.0522 4.1638 14.2553 4.34893 14.287C4.44767 14.306 4.60194 14.2108 4.68833 14.122C5.57695 13.227 6.45939 12.3321 7.32949 11.4245C7.52079 11.2278 7.7306 11.1326 8.00212 11.1326C9.34121 11.1389 10.6865 11.1389 12.0256 11.1389C13.1734 11.1389 13.9077 10.3836 13.9077 9.20943C13.9077 7.16571 13.9077 5.11564 13.9077 3.07193C13.9077 2.9196 13.9077 2.76727 13.8769 2.62129C13.6979 1.72002 12.9882 1.1488 12.0564 1.14245C10.5445 1.14245 9.03267 1.14245 7.52079 1.14245ZM9.08821 12.275C9.08204 12.3512 9.07586 12.3893 9.07586 12.4273C9.07586 14.1981 9.07586 15.9626 9.07586 17.7334C9.07586 17.8603 9.08821 17.9873 9.11289 18.1079C9.29802 18.971 10.0015 19.5423 10.8901 19.5486C12.2539 19.555 13.6177 19.555 14.9876 19.5486C15.2653 19.5486 15.469 19.6311 15.6664 19.8342C16.5427 20.7418 17.4251 21.6368 18.3076 22.538C18.3508 22.5825 18.394 22.6332 18.4433 22.6713C18.5976 22.7856 18.7519 22.7284 18.7889 22.5317C18.8013 22.4619 18.7951 22.392 18.7951 22.3159C18.7951 21.6241 18.7951 20.9386 18.7951 20.2468C18.7951 19.7517 18.9926 19.555 19.4677 19.5486C19.6467 19.5486 19.8195 19.5486 19.9984 19.5486C21.14 19.5423 21.8806 18.787 21.8806 17.6128C21.8806 15.5754 21.8806 13.5381 21.8806 11.5007C21.8806 11.342 21.8806 11.1833 21.8497 11.0247C21.6831 10.1742 20.9919 9.57121 20.1465 9.56486C18.4742 9.55216 16.8019 9.55851 15.1295 9.55851C15.0987 9.55851 15.0678 9.56486 15.037 9.57121C15.0308 9.61563 15.0185 9.65372 15.0123 9.6918C14.7161 11.3166 13.6115 12.2687 12.0071 12.2687C11.3776 12.2687 10.742 12.2687 10.1126 12.2687C9.76084 12.275 9.43378 12.275 9.08821 12.275Z" fill="#6D828E"/>
<path d="M7.4774 2.94498C7.8168 3.04653 8.20557 3.11 8.54497 3.27502C9.2608 3.63045 9.51998 4.42382 9.13738 5.14103C8.95225 5.49011 8.66839 5.80746 8.37218 6.08038C8.02661 6.39773 7.79829 6.72777 7.82914 7.22283C7.84148 7.49575 7.69955 7.60999 7.37249 7.62903C7.0516 7.64807 6.89116 7.55287 6.8603 7.2863C6.77391 6.63891 6.93436 6.08038 7.44037 5.64878C7.63167 5.48376 7.82297 5.33144 7.99576 5.14738C8.18089 4.95062 8.26728 4.70309 8.16237 4.42382C8.05747 4.1509 7.82297 4.06839 7.56996 4.04301C7.16885 3.99858 6.82945 4.10013 6.59495 4.48094C6.44068 4.73482 6.24321 4.77925 6.00255 4.66501C5.78039 4.55711 5.67549 4.33496 5.7372 4.06839C5.83593 3.63045 6.13213 3.35119 6.5209 3.19251C6.80477 3.08462 7.11948 3.04019 7.4774 2.94498Z" fill="#6D828E"/>
<path d="M7.32925 9.27289C7.00837 9.27289 6.74919 8.99998 6.75536 8.66359C6.76153 8.33355 7.00837 8.07967 7.32308 8.07332C7.64397 8.06697 7.91549 8.33989 7.91549 8.66993C7.92166 8.99363 7.65014 9.27289 7.32925 9.27289Z" fill="#6D828E"/>
<path d="M11.2169 14.5599C11.2169 14.0966 11.5933 13.7094 12.0438 13.7158C12.4943 13.7221 12.8584 14.1093 12.8522 14.5726C12.846 15.0296 12.482 15.4041 12.0377 15.4041C11.5872 15.4041 11.2169 15.0232 11.2169 14.5599Z" fill="#6D828E"/>
<path d="M19.7328 14.579C19.7204 15.0423 19.3317 15.4231 18.8874 15.4041C18.4369 15.385 18.079 14.9979 18.0975 14.5282C18.1098 14.0712 18.4863 13.7031 18.9244 13.7158C19.3749 13.7285 19.739 14.1156 19.7328 14.579Z" fill="#6D828E"/>
<path d="M16.2957 14.5663C16.2895 15.0232 15.9069 15.4168 15.4626 15.4041C15.0183 15.3977 14.6419 14.9979 14.6542 14.5409C14.6666 14.0902 15.0368 13.7158 15.475 13.7158C15.9193 13.7158 16.2957 14.1093 16.2957 14.5663Z" fill="#6D828E"/>
</svg>
