<svg width="16" height="13" viewBox="0 0 16 13" fill="none" xmlns="http://www.w3.org/2000/svg">
<path d="M16 12.6285C15.9917 12.6407 15.9792 12.6529 15.975 12.6651C15.9 12.8643 15.7583 12.9822 15.5375 12.9984C15.3083 13.0147 15.15 12.9049 15.0458 12.7179C14.7042 12.1162 14.2917 11.5593 13.8042 11.0633C12.375 9.60798 10.6417 8.74208 8.5875 8.51849C7.95833 8.44938 7.325 8.45751 6.67083 8.42905C6.67083 8.52662 6.67083 8.58353 6.67083 8.64451C6.67083 9.4657 6.66667 10.2909 6.675 11.1121C6.675 11.356 6.61667 11.5593 6.37083 11.6609C6.125 11.7626 5.925 11.6772 5.75417 11.4983C5.725 11.4699 5.69583 11.4414 5.6625 11.413C3.925 9.77466 2.19167 8.13229 0.4625 6.48992C0.295833 6.33137 0.154167 6.1525 0 5.98583C0 5.90452 0 5.82322 0 5.74191C0.0708333 5.64434 0.129167 5.53052 0.216667 5.44921C2.0625 3.69302 3.90833 1.94089 5.7625 0.192821C5.85 0.107451 5.975 0.0342757 6.09167 0.00988409C6.4125 -0.0510949 6.6625 0.17656 6.6625 0.513977C6.66667 1.35549 6.6625 2.20106 6.6625 3.04257C6.6625 3.10355 6.6625 3.16453 6.6625 3.23771C6.92083 3.25803 7.16667 3.27023 7.41667 3.29055C9.425 3.48162 11.1958 4.2215 12.7167 5.51426C14.4792 7.01434 15.5333 8.90062 15.9 11.1528C15.9458 11.4292 15.9667 11.7057 16 11.9821C16 12.2016 16 12.4171 16 12.6285ZM5.6625 10.0592C5.6625 9.96166 5.6625 9.90881 5.6625 9.8519C5.6625 9.23804 5.6625 8.62418 5.6625 8.00626C5.6625 7.6973 5.85417 7.47371 6.14583 7.47778C6.96667 7.48591 7.79583 7.45745 8.6125 7.53876C11.0292 7.77861 13.0458 8.81119 14.6875 10.5593C14.7083 10.5836 14.7375 10.604 14.7708 10.6365C14.7667 10.604 14.7667 10.5918 14.7625 10.5755C14.1875 8.35588 12.9 6.64033 10.9125 5.43702C9.49167 4.57518 7.925 4.20117 6.25833 4.2215C5.85 4.22557 5.6625 4.03856 5.6625 3.6483C5.6625 3.04257 5.6625 2.44091 5.6625 1.83519C5.6625 1.78234 5.65833 1.73356 5.65417 1.65225C4.15833 3.06696 2.69167 4.45729 1.21667 5.85574C2.69583 7.24606 4.1625 8.63638 5.6625 10.0592Z" fill="#2189C3"/>
</svg>
