<svg width="20" height="21" viewBox="0 0 20 21" fill="none" xmlns="http://www.w3.org/2000/svg">
<path id="Vector" d="M18.7998 12.6164L17.3286 11.3586C17.3982 10.9318 17.4342 10.4961 17.4342 10.0603C17.4342 9.62458 17.3982 9.18884 17.3286 8.76208L18.7998 7.50427C18.9108 7.40928 18.9902 7.28275 19.0275 7.14152C19.0648 7.0003 19.0583 6.85106 19.0087 6.71365L18.9885 6.65525C18.5835 5.52328 17.977 4.47392 17.1983 3.55789L17.1579 3.51072C17.0635 3.39965 16.9376 3.31981 16.7968 3.28172C16.6561 3.24363 16.5071 3.24908 16.3695 3.29734L14.5435 3.94646C13.8696 3.39392 13.1172 2.95818 12.3041 2.65271L11.9515 0.74353C11.9249 0.599875 11.8552 0.467715 11.7517 0.364609C11.6482 0.261503 11.5157 0.192331 11.372 0.166284L11.3113 0.155054C10.1411 -0.0560791 8.91026 -0.0560791 7.74004 0.155054L7.6794 0.166284C7.53564 0.192331 7.40321 0.261503 7.2997 0.364609C7.1962 0.467715 7.12651 0.599875 7.09991 0.74353L6.74502 2.66169C5.93843 2.96723 5.18728 3.40274 4.52139 3.95095L2.68184 3.29734C2.5443 3.24869 2.39522 3.24305 2.2544 3.28117C2.11358 3.31928 1.98769 3.39934 1.89346 3.51072L1.85303 3.55789C1.07531 4.47457 0.468935 5.52375 0.0628952 6.65525L0.0426803 6.71365C-0.0583939 6.99441 0.0247116 7.30886 0.251567 7.50427L1.74073 8.77556C1.6711 9.19783 1.63741 9.62908 1.63741 10.0581C1.63741 10.4893 1.6711 10.9206 1.74073 11.3406L0.251567 12.6119C0.1406 12.7069 0.0611802 12.8334 0.023867 12.9746C-0.0134462 13.1159 -0.00688428 13.2651 0.0426803 13.4025L0.0628952 13.4609C0.469438 14.5929 1.07139 15.6374 1.85303 16.5583L1.89346 16.6054C1.98792 16.7165 2.11381 16.7963 2.25455 16.8344C2.39529 16.8725 2.54426 16.8671 2.68184 16.8188L4.52139 16.1652C5.19073 16.7155 5.93868 17.1512 6.74502 17.4545L7.09991 19.3726C7.12651 19.5163 7.1962 19.6484 7.2997 19.7516C7.40321 19.8547 7.53564 19.9238 7.6794 19.9499L7.74004 19.9611C8.92101 20.1734 10.1304 20.1734 11.3113 19.9611L11.372 19.9499C11.5157 19.9238 11.6482 19.8547 11.7517 19.7516C11.8552 19.6484 11.9249 19.5163 11.9515 19.3726L12.3041 17.4635C13.1169 17.1588 13.8736 16.7216 14.5435 16.1697L16.3695 16.8188C16.5071 16.8675 16.6562 16.8731 16.797 16.835C16.9378 16.7969 17.0637 16.7168 17.1579 16.6054L17.1983 16.5583C17.98 15.6351 18.5819 14.5929 18.9885 13.4609L19.0087 13.4025C19.1098 13.1262 19.0267 12.8118 18.7998 12.6164ZM15.7339 9.02712C15.79 9.36628 15.8192 9.71443 15.8192 10.0626C15.8192 10.4107 15.79 10.7589 15.7339 11.098L15.5856 11.9987L17.2635 13.434C17.0091 14.0199 16.6881 14.5746 16.3066 15.0871L14.2223 14.3481L13.517 14.9276C12.9802 15.3678 12.3827 15.7137 11.7358 15.9563L10.8801 16.2775L10.478 18.4562C9.84367 18.5281 9.20322 18.5281 8.56885 18.4562L8.1668 16.273L7.31778 15.9473C6.67764 15.7048 6.08243 15.3589 5.5501 14.9209L4.84483 14.3391L2.74698 15.0848C2.36514 14.5705 2.0462 14.0157 1.79014 13.4317L3.48594 11.983L3.33995 11.0845C3.28604 10.7499 3.25684 10.404 3.25684 10.0626C3.25684 9.71892 3.28379 9.37527 3.33995 9.0406L3.48594 8.14216L1.79014 6.69343C2.04395 6.1072 2.36514 5.55466 2.74698 5.04031L4.84483 5.78601L5.5501 5.20427C6.08243 4.76628 6.67764 4.42039 7.31778 4.17781L8.16905 3.85662L8.5711 1.67341C9.20225 1.60154 9.84688 1.60154 10.4803 1.67341L10.8823 3.85212L11.7381 4.17332C12.3827 4.41589 12.9824 4.76179 13.5192 5.20203L14.2245 5.78152L16.3089 5.04255C16.6907 5.55691 17.0097 6.11169 17.2657 6.69568L15.5879 8.13093L15.7339 9.02712ZM9.52793 5.88484C7.34473 5.88484 5.57481 7.65476 5.57481 9.83796C5.57481 12.0212 7.34473 13.7911 9.52793 13.7911C11.7111 13.7911 13.4811 12.0212 13.4811 9.83796C13.4811 7.65476 11.7111 5.88484 9.52793 5.88484ZM11.3068 11.6169C11.0735 11.8509 10.7962 12.0364 10.4909 12.1628C10.1857 12.2893 9.85837 12.3541 9.52793 12.3536C8.85635 12.3536 8.2252 12.0908 7.74903 11.6169C7.51504 11.3835 7.32949 11.1063 7.20305 10.801C7.07662 10.4957 7.01179 10.1684 7.01231 9.83796C7.01231 9.16638 7.2751 8.53523 7.74903 8.05906C8.2252 7.58288 8.85635 7.32234 9.52793 7.32234C10.1995 7.32234 10.8307 7.58288 11.3068 8.05906C11.5408 8.29238 11.7264 8.56966 11.8528 8.87495C11.9792 9.18025 12.0441 9.50752 12.0436 9.83796C12.0436 10.5095 11.7808 11.1407 11.3068 11.6169Z" fill="#040F1C"/>
</svg>
