<svg width="19" height="18" viewBox="0 0 19 18" fill="none" xmlns="http://www.w3.org/2000/svg">
<path d="M8.54894 1.54508C8.8483 0.623774 10.1517 0.623772 10.4511 1.54508L11.4941 4.75532C11.7619 5.57937 12.5298 6.13729 13.3962 6.13729H16.7717C17.7404 6.13729 18.1432 7.3769 17.3595 7.9463L14.6287 9.93034C13.9277 10.4396 13.6344 11.3424 13.9021 12.1664L14.9452 15.3766C15.2446 16.298 14.1901 17.0641 13.4064 16.4947L10.6756 14.5106C9.9746 14.0014 9.0254 14.0014 8.32443 14.5106L5.59364 16.4947C4.80993 17.0641 3.75544 16.298 4.0548 15.3766L5.09787 12.1664C5.36561 11.3424 5.0723 10.4396 4.37132 9.93034L1.64053 7.9463C0.856819 7.3769 1.25959 6.13729 2.22832 6.13729H5.60376C6.47021 6.13729 7.23813 5.57937 7.50587 4.75532L8.54894 1.54508Z" stroke="#218AC4"/>
</svg>
