<svg width="22" height="15" viewBox="0 0 22 15" fill="none" xmlns="http://www.w3.org/2000/svg">
<path d="M11 0C4.93457 0 0 4.91532 0 10.957C0 11.313 0.288578 11.6016 0.644531 11.6016H4.55469C4.91064 11.6016 5.19922 11.313 5.19922 10.957C5.19922 7.79397 7.77206 5.15625 11 5.15625C12.306 5.15625 13.5124 5.59019 14.483 6.32126L9.61482 9.42687C8.86785 9.90339 8.42188 10.7164 8.42188 11.6016C8.42188 13.0231 9.57842 14.1797 11 14.1797C11.9986 14.1797 12.9163 13.5946 13.338 12.6891L15.716 7.5833C16.3985 8.53454 16.8008 9.69964 16.8008 10.957C16.8008 11.313 17.0894 11.6016 17.4453 11.6016H21.3555C21.7114 11.6016 22 11.313 22 10.957C22 4.91532 17.0654 0 11 0ZM3.93976 10.3125H1.31115C1.45664 8.12294 2.33733 6.13048 3.70945 4.57802L5.5541 6.42267C4.65764 7.49753 4.07305 8.84082 3.93976 10.3125ZM10.3555 3.89679C8.88379 4.03008 7.5405 4.61467 6.46564 5.51117L4.62481 3.67035C6.18015 2.31984 8.17025 1.45415 10.3555 1.31089V3.89679ZM12.1695 12.1449C11.9585 12.5979 11.4994 12.8906 11 12.8906C10.2892 12.8906 9.71094 12.3124 9.71094 11.6016C9.71094 11.1589 9.93416 10.7522 10.3081 10.5136L14.0372 8.13471L12.1695 12.1449ZM15.5344 5.51117C14.4595 4.61471 13.1162 4.03008 11.6445 3.89679V1.31072C13.8297 1.45398 15.8196 2.32005 17.3749 3.67061L15.5344 5.51117ZM18.0602 10.3125C17.9269 8.84082 17.3424 7.49753 16.4459 6.42267L18.2906 4.57793C19.6628 6.13048 20.544 8.12294 20.6896 10.3125H18.0602Z" fill="#0B2F42"/>
</svg>
