<svg width="47" height="48" viewBox="0 0 47 48" fill="none" xmlns="http://www.w3.org/2000/svg">
<g clip-path="url(#clip0_2752_1137)">
<path d="M23.6763 19.2568C24.0658 19.2568 24.4394 19.4116 24.7148 19.687C24.9903 19.9625 25.145 20.336 25.145 20.7256V23.0051C25.1447 26.5141 24.5976 30.0016 23.5235 33.3421L19.6137 45.5034C19.4874 45.8649 19.225 46.1629 18.8823 46.3337C18.5395 46.5045 18.1436 46.5348 17.7789 46.4179C17.4142 46.3011 17.1096 46.0464 16.93 45.7082C16.7503 45.37 16.7098 44.9751 16.8172 44.6075L20.7241 32.4433C21.7048 29.3932 22.2043 26.2089 22.2046 23.0051V20.7256C22.2046 20.336 22.3593 19.9625 22.6348 19.687C22.9102 19.4116 23.2838 19.2568 23.6733 19.2568H23.6763Z" fill="#116DD6"/>
<path d="M17.8012 20.7256C17.8012 19.9541 17.9532 19.1901 18.2484 18.4773C18.5437 17.7645 18.9764 17.1169 19.522 16.5713C20.0675 16.0258 20.7152 15.593 21.4279 15.2978C22.1407 15.0025 22.9047 14.8506 23.6762 14.8506C24.4477 14.8506 25.2117 15.0025 25.9245 15.2978C26.6373 15.593 27.2849 16.0258 27.8305 16.5713C28.376 17.1169 28.8088 17.7645 29.104 18.4773C29.3993 19.1901 29.5512 19.9541 29.5512 20.7256C29.5512 21.1151 29.3965 21.4887 29.121 21.7641C28.8456 22.0396 28.472 22.1943 28.0825 22.1943C27.6929 22.1943 27.3193 22.0396 27.0439 21.7641C26.7685 21.4887 26.6137 21.1151 26.6137 20.7256C26.6137 19.9465 26.3042 19.1993 25.7533 18.6485C25.2025 18.0976 24.4553 17.7881 23.6762 17.7881C22.8971 17.7881 22.15 18.0976 21.5991 18.6485C21.0482 19.1993 20.7387 19.9465 20.7387 20.7256V21.7008C20.7387 22.9023 20.6741 24.0978 20.5448 25.2875C20.494 25.6668 20.2972 26.0113 19.9962 26.2476C19.6952 26.4839 19.3139 26.5935 18.9334 26.5529C18.5528 26.5123 18.2032 26.3248 17.9588 26.0303C17.7145 25.7359 17.5947 25.3576 17.625 24.9761C17.7425 23.8893 17.8012 22.7965 17.8012 21.7008V20.7256ZM28.1089 23.6631C28.3018 23.668 28.4918 23.7109 28.6681 23.7894C28.8444 23.8678 29.0036 23.9802 29.1364 24.1201C29.2693 24.2601 29.3733 24.4248 29.4424 24.605C29.5116 24.7851 29.5445 24.9771 29.5395 25.17C29.4524 28.5067 28.8713 31.812 27.8152 34.9783L24.0963 46.1408C23.9728 46.5105 23.7075 46.816 23.3588 46.9901C23.0101 47.1641 22.6065 47.1926 22.2368 47.0691C21.8672 46.9456 21.5617 46.6803 21.3876 46.3316C21.2135 45.9829 21.1851 45.5793 21.3086 45.2097L25.0304 34.0471C25.9936 31.1567 26.5232 28.1394 26.602 25.0937C26.6069 24.9008 26.6498 24.7107 26.7282 24.5344C26.8067 24.3581 26.9191 24.199 27.059 24.0661C27.199 23.9333 27.3637 23.8293 27.5439 23.7601C27.724 23.691 27.916 23.658 28.1089 23.6631ZM18.2506 29.8759C18.4351 29.9329 18.6066 30.0256 18.7552 30.1489C18.9037 30.2722 19.0266 30.4236 19.1166 30.5944C19.2066 30.7651 19.2621 30.952 19.2799 31.1443C19.2976 31.3365 19.2773 31.5304 19.22 31.7148L15.3925 44.0464C15.3382 44.2339 15.2471 44.4088 15.1245 44.5607C15.0019 44.7126 14.8502 44.8385 14.6784 44.9312C14.5065 45.0238 14.3179 45.0812 14.1236 45.1001C13.9293 45.119 13.7332 45.0989 13.5467 45.0411C13.3603 44.9833 13.1872 44.889 13.0376 44.7635C12.8881 44.638 12.765 44.484 12.6757 44.3104C12.5863 44.1369 12.5325 43.9472 12.5173 43.7526C12.5021 43.5579 12.5258 43.3622 12.5871 43.1769L16.4147 30.8423C16.5304 30.471 16.7887 30.1607 17.1328 29.9795C17.477 29.7983 17.879 29.7611 18.2506 29.8759Z" fill="#116DD6"/>
<path d="M13.9795 17.2975C14.7908 15.0139 16.3824 13.0902 18.4737 11.8657C20.5649 10.6411 23.0214 10.1944 25.4099 10.6043C27.7984 11.0142 29.9654 12.2544 31.5286 14.1061C33.0919 15.9579 33.9511 18.3022 33.9545 20.7256C33.9545 21.1151 33.7998 21.4887 33.5243 21.7641C33.2489 22.0396 32.8753 22.1943 32.4858 22.1943C32.0962 22.1943 31.7227 22.0396 31.4472 21.7641C31.1718 21.4887 31.017 21.1151 31.017 20.7256C31.0168 18.9933 30.4042 17.317 29.2875 15.9927C28.1708 14.6684 26.622 13.7815 24.9146 13.4887C23.2073 13.1959 21.4515 13.516 19.9574 14.3925C18.4632 15.269 17.3271 16.6455 16.7496 18.2786C16.6195 18.646 16.3488 18.9466 15.9971 19.1143C15.6453 19.2821 15.2413 19.3032 14.874 19.1731C14.5067 19.043 14.2061 18.7723 14.0383 18.4206C13.8706 18.0688 13.8494 17.6649 13.9795 17.2975ZM14.8608 22.2031C15.2483 22.241 15.605 22.4313 15.8523 22.732C16.0996 23.0328 16.2174 23.4195 16.1797 23.807C15.9814 25.829 15.5879 27.827 15.0047 29.7731L11.4151 41.7346C11.3033 42.1078 11.0478 42.4212 10.7049 42.6061C10.362 42.7909 9.95968 42.8319 9.5865 42.7201C9.21333 42.6083 8.89985 42.3529 8.71502 42.0099C8.5302 41.667 8.48918 41.2647 8.60097 40.8915L12.1906 28.93C12.7198 27.165 13.0769 25.353 13.2569 23.5191C13.2948 23.1316 13.485 22.775 13.7858 22.5276C14.0866 22.2803 14.4732 22.1655 14.8608 22.2031ZM32.4858 24.1037C32.8753 24.1037 33.2489 24.2585 33.5243 24.5339C33.7998 24.8093 33.9545 25.1829 33.9545 25.5725C33.9545 29.3325 33.3288 33.069 32.098 36.6233L28.8962 45.8618C28.7567 46.2135 28.4869 46.4978 28.143 46.6555C27.7991 46.8132 27.4076 46.8321 27.0501 46.7083C26.6926 46.5844 26.3966 46.3274 26.2239 45.9908C26.0513 45.6541 26.0152 45.2638 26.1232 44.9012L29.3221 35.6628C30.4442 32.4168 31.02 29.0064 31.02 25.5725C31.02 25.1829 31.1747 24.8093 31.4502 24.5339C31.7256 24.2585 32.0992 24.1037 32.4887 24.1037H32.4858Z" fill="#116DD6"/>
<path d="M11.4622 12.5653C13.0941 10.1187 15.4235 8.21883 18.1482 7.11208C20.8729 6.00533 23.8673 5.74273 26.7431 6.35832C26.9319 6.39844 27.111 6.47536 27.2701 6.58469C27.4292 6.69401 27.5652 6.83361 27.6703 6.9955C27.7755 7.15739 27.8477 7.3384 27.8829 7.52821C27.9181 7.71802 27.9156 7.9129 27.8755 8.10173C27.8353 8.29056 27.7584 8.46964 27.6491 8.62874C27.5398 8.78784 27.4002 8.92385 27.2383 9.029C27.0764 9.13416 26.8954 9.20639 26.7056 9.24159C26.5158 9.27679 26.3209 9.27425 26.1321 9.23414C23.8309 8.74033 21.4345 8.94963 19.2539 9.83489C17.0732 10.7201 15.209 12.2405 13.9032 14.1985C13.6835 14.5148 13.3484 14.7322 12.97 14.8038C12.5916 14.8754 12.2003 14.7955 11.8802 14.5814C11.5601 14.3672 11.3369 14.0359 11.2588 13.6588C11.1806 13.2817 11.2536 12.889 11.4622 12.5653ZM31.2022 9.75995C31.4566 9.46516 31.8177 9.28348 32.206 9.25483C32.5944 9.22619 32.9782 9.35293 33.2731 9.6072C34.8715 10.985 36.1536 12.6917 37.0317 14.6106C37.9097 16.5295 38.3631 18.6154 38.3609 20.7256V25.1319C38.3609 25.5214 38.2061 25.895 37.9307 26.1704C37.6552 26.4459 37.2817 26.6006 36.8921 26.6006C36.5026 26.6006 36.129 26.4459 35.8536 26.1704C35.5781 25.895 35.4234 25.5214 35.4234 25.1319V20.7256C35.4254 19.0373 35.0627 17.3684 34.36 15.8332C33.6573 14.298 32.6312 12.9328 31.352 11.8309C31.0576 11.576 30.8765 11.2148 30.8484 10.8264C30.8203 10.4381 30.9476 10.0545 31.2022 9.75995ZM10.8101 17.324C11.0011 17.352 11.1847 17.4175 11.3504 17.5165C11.5161 17.6156 11.6606 17.7463 11.7758 17.9013C11.8909 18.0562 11.9744 18.2324 12.0214 18.4196C12.0684 18.6069 12.078 18.8015 12.0497 18.9925C11.9645 19.5565 11.9204 20.1381 11.9204 20.7256C11.9204 22.8113 11.6267 24.8881 11.0451 26.8944L7.6963 38.4182C7.64612 38.6075 7.5586 38.7848 7.43889 38.9397C7.31918 39.0947 7.1697 39.2241 6.99924 39.3204C6.82877 39.4168 6.64077 39.4781 6.44628 39.5007C6.25179 39.5233 6.05474 39.5068 5.86672 39.4522C5.67869 39.3975 5.5035 39.3058 5.35142 39.1825C5.19935 39.0592 5.07348 38.9067 4.9812 38.734C4.88892 38.5613 4.8321 38.3719 4.81409 38.1769C4.79608 37.9819 4.81723 37.7853 4.8763 37.5986L8.22505 26.0748C8.72873 24.3364 8.98389 22.5355 8.98293 20.7256C8.98293 19.9913 9.03874 19.2686 9.14155 18.5636C9.16958 18.3726 9.235 18.189 9.33405 18.0233C9.4331 17.8576 9.56385 17.7131 9.71881 17.5979C9.87378 17.4828 10.0499 17.3993 10.2372 17.3523C10.4244 17.3053 10.6191 17.2957 10.8101 17.324ZM36.9009 28.0753C37.2888 28.1082 37.6478 28.2937 37.899 28.5911C38.1502 28.8886 38.273 29.2736 38.2404 29.6615C37.9937 32.599 37.3651 35.4954 36.3604 38.2801L34.1749 44.3549C34.0387 44.7153 33.7662 45.0078 33.4164 45.1692C33.0665 45.3306 32.6672 45.3481 32.3046 45.2178C31.9419 45.0876 31.645 44.82 31.4778 44.4729C31.3106 44.1257 31.2865 43.7268 31.4107 43.362L33.5992 37.2814C34.512 34.7453 35.0887 32.1006 35.3147 29.4148C35.3476 29.0269 35.5331 28.6679 35.8306 28.4167C36.128 28.1655 36.513 28.0427 36.9009 28.0753Z" fill="#116DD6"/>
<path d="M14.1294 4.18747C17.0322 2.51154 20.325 1.62929 23.6769 1.62939C27.0288 1.6295 30.3215 2.51197 33.2242 4.18809C36.1269 5.8642 38.5372 8.2749 40.2129 11.1779C41.8885 14.0808 42.7705 17.3737 42.77 20.7256C42.77 21.1151 42.6153 21.4887 42.3398 21.7642C42.0644 22.0396 41.6908 22.1943 41.3013 22.1943C40.9117 22.1943 40.5382 22.0396 40.2627 21.7642C39.9873 21.4887 39.8325 21.1151 39.8325 20.7256C39.8335 17.8891 39.0877 15.1024 37.6701 12.6456C36.2524 10.1887 34.213 8.14843 31.7568 6.72977C29.3006 5.31112 26.5141 4.56412 23.6776 4.56388C20.8412 4.56364 18.0546 5.31017 15.5982 6.72841C15.2625 6.904 14.872 6.94311 14.5081 6.83756C14.1443 6.73202 13.8353 6.48997 13.6458 6.162C13.4562 5.83403 13.4007 5.44549 13.4908 5.07754C13.5809 4.7096 13.8097 4.3907 14.1294 4.18747ZM11.515 7.87991C11.6589 8.00836 11.7761 8.1639 11.8599 8.33765C11.9437 8.51139 11.9924 8.69993 12.0033 8.89251C12.0142 9.08509 11.9871 9.27793 11.9235 9.46003C11.8599 9.64212 11.761 9.8099 11.6325 9.95378C8.9782 12.9131 7.51325 16.7503 7.52003 20.7256C7.52003 21.1151 7.36529 21.4887 7.08984 21.7642C6.8144 22.0396 6.44082 22.1943 6.05128 22.1943C5.66174 22.1943 5.28816 22.0396 5.01272 21.7642C4.73727 21.4887 4.58253 21.1151 4.58253 20.7256C4.58253 15.8376 6.4214 11.3726 9.44409 7.99741C9.57255 7.85352 9.72808 7.73633 9.90183 7.65255C10.0756 7.56877 10.2641 7.52003 10.4567 7.50912C10.6493 7.49821 10.8421 7.52534 11.0242 7.58896C11.2063 7.65258 11.3711 7.75145 11.515 7.87991ZM5.62534 23.7218C5.99989 23.8273 6.31729 24.0771 6.50785 24.4163C6.69841 24.7556 6.74656 25.1566 6.64172 25.5313L4.35341 33.6594C4.30772 33.852 4.2236 34.0333 4.10607 34.1926C3.98855 34.3518 3.84006 34.4856 3.66951 34.5861C3.49896 34.6865 3.30988 34.7514 3.11362 34.7769C2.91736 34.8024 2.71797 34.788 2.52743 34.7345C2.33688 34.681 2.1591 34.5896 2.00478 34.4657C1.85045 34.3418 1.72276 34.188 1.62937 34.0135C1.53598 33.839 1.47882 33.6474 1.46132 33.4503C1.44382 33.2531 1.46634 33.0545 1.52753 32.8663L3.81291 24.7382C3.86511 24.5524 3.95341 24.3788 4.07276 24.2271C4.19212 24.0755 4.34019 23.9488 4.50851 23.8545C4.67682 23.7601 4.8621 23.6998 5.05373 23.677C5.24536 23.6543 5.4396 23.6695 5.62534 23.7218ZM41.316 25.1348C41.5089 25.1386 41.6991 25.1804 41.8758 25.2577C42.0526 25.3351 42.2123 25.4465 42.346 25.5857C42.4797 25.7248 42.5846 25.8889 42.6549 26.0686C42.7251 26.2483 42.7592 26.44 42.7553 26.6329C42.6672 31.0362 42.2824 35.5188 40.6198 39.9486L40.4142 40.4979C40.2703 40.8526 39.9936 41.1372 39.6431 41.291C39.2925 41.4447 38.8958 41.4556 38.5374 41.3211C38.1789 41.1867 37.8872 40.9177 37.7242 40.5714C37.5611 40.225 37.5398 39.8287 37.6647 39.4668L37.8703 38.9175C39.3567 34.9519 39.7327 30.8688 39.8178 26.5742C39.8217 26.3813 39.8634 26.191 39.9408 26.0143C40.0182 25.8375 40.1296 25.6778 40.2687 25.5441C40.4078 25.4104 40.5719 25.3055 40.7516 25.2353C40.9313 25.165 41.1231 25.1309 41.316 25.1348Z" fill="#116DD6"/>
</g>
<defs>
<clipPath id="clip0_2752_1137">
<rect width="47" height="47" fill="white" transform="translate(0 0.163086)"/>
</clipPath>
</defs>
</svg>
